<?xml version="1.0" encoding="UTF-8"?> 
<svg width="6790px" height="1619px" viewBox="0 0 6790 1619" version="1.1" xmlns="http://www.w3.org/2000/svg" xmlns:xlink="http://www.w3.org/1999/xlink">
    <title>whole-slice</title>
    <g id="Page-1" stroke="none" stroke-width="1" fill="none" fill-rule="evenodd">
        <g id="roots-home-wordmark-min" transform="translate(29.331741, 30.790000)" fill="#000000" fill-rule="nonzero">
            <path d="M5739.82826,223.150142 C5720.23826,223.2 5706.56826,210.06 5706.63799,191.25 C5706.70826,172.44 5720.58826,159.18 5739.99826,159.36 C5759.40826,159.54 5773.52826,173.14 5773.46845,191.42 C5773.40826,209.7 5759.31826,223.09 5739.82826,223.150142 L5739.82826,223.150142 Z" id="Path"></path>
            <path d="M5105.71826,223.150204 C5086.61826,223.150204 5073.02826,210.21 5072.83826,191.89 C5072.63826,173.18 5086.44826,159.48 5105.63826,159.35 C5125.13826,159.22 5140.32826,173.58 5139.96826,191.8 C5139.60826,210.02 5125.31826,223.21 5105.71826,223.150204 L5105.71826,223.150204 Z" id="Path"></path>
            <path d="M3274.20826,1376.54 C3297.41826,1408.35 3310.85826,1444.32 3318.37826,1482.64 C3320.87826,1495.36 3322.30826,1508.3 3324.13826,1521.14 C3324.50925,1523.78963 3324.65977,1526.46548 3324.58826,1529.14 C3324.39666,1540.1394 3315.78999,1549.14772 3304.81076,1549.84045 C3293.83152,1550.53319 3284.16085,1542.67809 3282.58826,1531.79 C3279.87826,1514.71 3278.10826,1497.43 3274.46826,1480.55 C3267.85826,1449.99 3256.10826,1421.48 3236.89826,1396.42 C3226.25826,1382.54 3213.79826,1370.63 3198.76826,1361.55 C3196.03826,1359.9 3193.05826,1358.67 3188.60826,1356.45 C3187.20826,1374.59 3185.60826,1391.09 3184.75826,1407.63 C3184.14826,1419.63 3184.75826,1431.63 3184.42826,1443.63 C3184.17826,1452.9 3179.21826,1459.19 3170.62826,1462.55 C3162.26826,1465.83 3154.90826,1463.7 3148.45826,1457.94 C3144.26826,1454.21 3142.35826,1449.33 3142.20826,1443.72 C3140.59826,1383.64 3145.97826,1324.59 3168.72826,1268.22 C3186.72826,1223.57 3214.15826,1186.22 3255.13826,1159.86 C3272.34826,1148.76 3290.71826,1140.15 3310.78826,1135.86 C3326.45826,1132.47 3337.78826,1123.43 3346.52826,1110.62 C3356.31826,1096.32 3361.52826,1080.13 3364.24826,1063.28 C3366.41053,1050.14208 3367.60375,1036.86294 3367.81826,1023.55 C3368.24826,979.92 3367.98826,936.28 3367.96826,892.64 C3367.96826,889.72 3367.71826,886.79 3367.52826,882.4 C3364.61826,884.4 3362.43826,885.54 3360.66826,887.14 C3341.02826,904.85 3318.08826,916.69 3293.19826,925.01 C3288.19826,926.69 3282.82826,927.36 3277.70826,928.78 C3222.85826,944.02 3183.70826,978.65 3156.51826,1027.66 C3138.82826,1059.52 3128.95826,1094.02 3124.75826,1130.03 C3122.44826,1149.83 3121.89826,1169.84 3120.75826,1189.77 C3120.26826,1198.56 3116.59826,1205.16 3108.60826,1208.9 C3101.06826,1212.43 3093.60826,1211.64 3086.82826,1206.9 C3080.57826,1202.52 3078.32826,1196.22 3078.30826,1188.73 C3078.20466,1165.07522 3080.02062,1141.45104 3083.73826,1118.09 C3084.94826,1110.6 3086.29826,1103.09 3087.96826,1093.45 C3083.33826,1095.68 3080.17826,1096.99 3077.21826,1098.65 C3027.02826,1126.91 2994.71826,1169.28 2979.04826,1224.33 C2975.14826,1238.03 2973.04826,1252.33 2970.63826,1266.33 C2968.63826,1277.98 2962.18826,1285.44 2951.91826,1286.64 C2938.27826,1288.23 2926.97826,1278.64 2928.32826,1264.99 C2929.62536,1250.73471 2932.04622,1236.60411 2935.56826,1222.73 C2958.45826,1135.86 3012.56826,1076.97 3096.62826,1045.57 C3101.33176,1044.06667 3105.07762,1040.47581 3106.77826,1035.84 C3129.61826,982.48 3165.12826,940.09 3215.64826,910.7 C3233.90826,900.07 3253.73826,893.34 3273.44826,886.19 C3282.18826,883.02 3290.98826,879.78 3299.26826,875.58 C3321.17826,864.47 3336.91826,847.39 3346.48826,824.68 C3356.55826,800.75 3361.37826,775.59 3362.55826,749.87 C3363.73826,724.15 3363.80826,698.61 3363.81826,672.97 C3363.91826,512.75 3363.91826,352.53 3363.81826,192.31 L3363.81826,179.73 C3360.51826,179.38 3357.99826,178.89 3355.47826,178.88 C3340.14826,178.8 3324.81826,178.88 3309.47826,178.82 C3306.46971,178.919599 3303.45821,178.75564 3300.47826,178.33 C3288.85826,176.25 3281.86826,167.28 3282.47826,155.61 C3283.09826,144.26 3291.41826,135.51 3302.94826,135.07 C3314.94826,134.61 3326.94826,134.9 3338.94826,134.88 C3353.27826,134.88 3367.62826,135.29 3381.94826,134.77 C3396.26826,134.25 3406.57826,139.71 3415.17826,151.12 C3491.77159,252.74 3568.50826,354.24 3645.38826,455.62 C3649.18826,460.62 3653.06826,465.62 3657.48826,471.34 C3660.03826,468.25 3662.18826,465.84 3664.12826,463.27 C3742.34826,359.896667 3820.52826,256.543333 3898.66826,153.21 C3900.87826,150.28 3903.02826,147.3 3905.43826,144.55 C3910.73826,138.49 3917.43826,135.02 3925.55826,135 C3954.22826,134.92 3982.88826,134.736084 4011.55826,135 C4024.10826,135.12 4032.79826,144.35 4033.02826,156.6 C4033.25826,168.85 4025.10826,178.07 4012.02826,178.6 C3996.02826,179.22 3980.02826,178.81 3964.02826,178.84 L3952.66826,178.84 C3952.37826,182.58 3951.96826,185.46 3951.96826,188.34 L3951.96826,647.02 C3951.96826,661.44 3956.34826,666.19 3970.88826,666.65 C3984.20826,667.08 3997.54826,666.56 4010.88826,666.9 C4024.22826,667.24 4032.88826,676.3 4033.09164,688.98 C4033.21826,700.14 4025.93826,709.98 4014.85826,710.28 C3990.61826,710.89 3966.18826,713.12 3942.21826,707.06 C3914.79826,700.12 3901.11826,683.5 3899.48826,655.28 C3899.27826,651.62 3899.39826,647.95 3899.39826,644.28 L3899.39826,236.93 L3897.57826,236.31 C3895.35826,238.97 3893.00826,241.54 3890.91826,244.31 C3821.50493,335.923333 3752.12826,427.556667 3682.78826,519.21 C3678.53826,524.82 3674.31826,530.36 3667.27826,532.8 C3655.40826,536.92 3643.78826,533.44 3635.49826,522.6 C3618.08826,499.85 3600.89826,476.93 3583.60826,454.09 C3530.74159,384.236667 3477.85826,314.393333 3424.95826,244.56 C3422.82826,241.75 3420.51826,239.08 3417.03826,234.8 C3416.72826,239.57 3416.38826,242.39 3416.38826,245.21 C3416.34826,405.43 3416.34826,565.653333 3416.38826,725.88 C3416.38826,757.71 3420.15826,788.98 3431.22826,819.08 C3442.79826,850.54 3465.10826,871.08 3496.14826,882.59 C3504.24826,885.59 3512.40826,888.46 3520.58826,891.26 C3591.58826,915.59 3640.58826,963.61 3671.01826,1031.26 C3674.75826,1039.57 3679.69826,1043.87 3688.08826,1047.26 C3777.30826,1082.74 3830.52826,1148.15 3848.70826,1242.26 C3850.02826,1249.12 3851.06826,1256.05 3851.91826,1262.98 C3853.31826,1274.51 3846.03826,1284.51 3835.10826,1286.46 C3823.20826,1288.58 3812.93826,1282.19 3810.32826,1270.27 C3807.41826,1256.96 3805.94826,1243.27 3802.49826,1230.13 C3787.49826,1172.96 3754.90826,1128.87 3703.36826,1099.26 C3700.25826,1097.47 3697.00826,1095.94 3692.13826,1093.42 C3693.41826,1101.31 3694.30826,1107.42 3695.42826,1113.51 C3699.97826,1138.17 3701.42826,1163.09 3701.66826,1188.08 C3701.79826,1201.42 3693.58826,1210.37 3681.60826,1210.87 C3668.52826,1211.42 3659.68826,1202.59 3659.01826,1188.38 C3658.27826,1172.38 3658.20826,1156.38 3656.56826,1140.52 C3651.39826,1090.4 3637.49826,1043.19 3607.16826,1002.04 C3579.96826,965.16 3544.77826,939.3 3499.90826,928.29 C3479.16584,923.336877 3459.3901,914.973077 3441.38826,903.54 C3432.76826,898.03 3424.78826,891.54 3415.62826,884.82 C3415.30826,887.95 3414.84826,890.39 3414.83826,892.82 C3414.83826,937.46 3414.59826,982.09 3414.90826,1026.73 C3415.05826,1049.16 3418.29826,1071.2 3426.61826,1092.24 C3431.07826,1103.51 3437.06826,1113.83 3446.01826,1122.18 C3452.17826,1127.93 3459.01826,1132.66 3467.35826,1134.61 C3523.45826,1147.73 3564.55826,1181.1 3594.45826,1229.21 C3616.05826,1263.96 3627.75826,1302.37 3634.51826,1342.42 C3640.01826,1375.05 3641.34826,1407.95 3640.83826,1440.98 C3640.69826,1449.72 3637.74826,1456.62 3630.13826,1461.05 C3614.33826,1470.23 3597.97826,1456.95 3598.13826,1442.41 C3598.37826,1422.79 3597.38826,1403.14 3596.52826,1383.52 C3596.16826,1375.33 3594.78826,1367.18 3593.67826,1357.29 C3589.07826,1359.81 3585.58826,1361.43 3582.40826,1363.51 C3557.70826,1379.68 3540.40826,1402.17 3527.64826,1428.36 C3513.17826,1458.07 3506.03826,1489.78 3502.64826,1522.46 C3502.44688,1525.78051 3502.07304,1529.0883 3501.52826,1532.37 C3499.16826,1543.63 3488.92826,1551.22 3478.27826,1549.81 C3466.76376,1548.48954 3458.43106,1538.18599 3459.54826,1526.65 C3462.24826,1495.35 3467.98826,1464.65 3478.95826,1435.11 C3491.05826,1402.52 3508.49826,1373.29 3533.95826,1349.21 C3546.75088,1336.99124 3561.39078,1326.86683 3577.33826,1319.21 C3579.68826,1318.09 3581.98826,1316.86 3584.90826,1315.37 C3568.80826,1260.03 3541.95826,1213.25 3489.01826,1185.85 C3480.48068,1181.38082 3471.40728,1178.0203 3462.01826,1175.85 C3434.27826,1169.64 3414.19826,1153.47 3399.09826,1130.18 C3397.82826,1128.18 3396.66826,1126.18 3395.46826,1124.18 C3394.46826,1122.48 3393.46826,1120.78 3391.46826,1117.6 C3389.37826,1120.97 3387.71826,1123.52 3386.17826,1126.14 C3374.90826,1145.29 3359.93826,1160.49 3339.41826,1169.69 C3335.21534,1171.6986 3330.81051,1173.25404 3326.27826,1174.33 C3293.98826,1181.03 3267.97826,1198.25 3246.27826,1222.33 C3222.77826,1248.33 3208.27826,1279.16 3198.86826,1312.6 C3198.76349,1313.57652 3198.74675,1314.56048 3198.81826,1315.54 C3230.08826,1328.66 3254.59826,1349.67 3274.20826,1376.54 Z" id="Path"></path>
            <path d="M25.7382592,134.886488 C130.731593,134.886488 235.731593,134.95 340.738259,135.07 C376.618259,135.15 411.828259,140.02 445.538259,153.02 C476.538259,165.02 502.268259,183.72 519.998259,212.32 C531.388259,230.69 538.078259,250.8 541.488259,272.07 C546.558259,303.68 546.108259,335.18 538.278259,366.27 C526.338259,413.67 497.158259,446.8 452.888259,466.91 C445.078259,470.45 437.018259,473.44 428.348259,476.97 C430.158259,480.32 431.588259,483.21 433.238259,485.97 C471.691593,550.283333 510.158259,614.586667 548.638259,678.88 C550.805751,682.235933 552.782224,685.711453 554.558259,689.29 C558.858259,698.79 555.658259,708.93 546.808259,714.52 C545.097095,715.547242 543.312215,716.446367 541.468259,717.21 C524.708259,724.6 516.758259,722.21 507.338259,706.56 L498.4437,691.837343 L498.4437,691.837343 L480.649553,662.394698 C448.027137,608.416327 415.428974,554.424286 383.238259,500.21 C377.688259,490.87 371.978259,488.32 361.238259,488.48 C289.928259,489.55 218.598259,489.63 147.238259,490.03 L133.298259,490.03 L133.298259,503.03 C133.298259,566.32 132.298259,629.63 133.788259,692.88 C134.388259,717.88 108.098259,725.82 92.3782592,716.43 C85.2782592,712.2 81.0882592,706.23 80.9682592,697.77 C80.9182592,694.77 80.9682592,691.77 80.9682592,688.77 L80.9682592,178.84 L27.7082592,178.84 C24.0530275,178.944408 20.396819,178.669606 16.7982592,178.02 C5.66825922,175.55 -0.681740778,166.84 0.0582592222,155.39 C0.540308399,144.611178 8.9816067,135.882498 19.7382592,135.04 C21.7382592,134.85 23.7382592,134.886488 25.7382592,134.886488 Z M329.138259,178.819182 C267.484926,178.92 205.818259,178.92 144.138259,178.819182 L133.928259,178.819182 L133.928259,446.31 C136.498259,446.55 138.138259,446.84 139.778259,446.84 C206.428259,446.84 273.088259,447.09 339.778259,446.62 C366.188259,446.44 392.248259,442.69 417.118259,433.03 C456.998259,417.523333 480.974926,388.756667 489.048259,346.73 C493.781091,321.787134 493.526186,296.153813 488.298259,271.31 C483.758259,249.31 474.388259,229.7 457.298259,214.41 C443.628259,202.17 427.488259,194.46 410.138259,189.12 C383.758259,181 356.628259,178.77 329.138259,178.819182 Z" id="Combined-Shape"></path>
            <path d="M4864.82826,0.03 C4868.48261,0.0142919197 4872.12447,0.457764596 4875.66826,1.35 C4886.61826,4.23 4893.02826,12.42 4893.54826,23.75 C4893.69826,27.08 4893.59826,30.42 4893.59826,33.75 L4893.59826,635.31 C4893.59826,639.31 4893.49826,643.31 4893.67826,647.31 C4894.28826,661.24 4899.55826,666.53 4913.38826,666.77 C4924.38826,666.96 4935.38826,666.77 4946.38826,666.83 C4947.15749,666.83 4947.92672,666.823846 4948.69595,666.815253 L4951.00364,666.785867 C4954.46518,666.741953 4957.92672,666.723846 4961.38826,667.07 C4973.13826,668.25 4980.79826,676.92 4980.78827,688.51 C4980.78827,699.87 4972.86826,710.22 4961.69826,710.35 C4960.22735,710.367576 4958.75574,710.386033 4957.28357,710.404635 L4952.86546,710.460138 C4931.50429,710.723379 4910.05068,710.862121 4888.89826,708.63 C4865.26826,706.13 4851.06826,690.12 4846.89826,666.73 C4845.75826,660.21 4845.23826,653.55 4844.36826,646.44 C4833.75826,657.63 4824.31826,668.81 4813.61826,678.63 C4791.87826,698.56 4766.98826,713.09 4737.36826,717.75 C4698.93826,723.75 4661.55826,719.75 4626.05826,703.39 C4591.28826,687.39 4568.45826,659.44 4553.79826,625.13 C4529.44826,568.13 4527.79826,509.75 4549.87826,451.85 C4575.76826,383.85 4631.95826,346.85 4705.77826,347.11 C4754.42826,347.25 4798.23826,361.44 4835.77826,393.17 C4836.77826,394.02 4837.88826,394.75 4838.83826,395.46 C4839.23224,395.342834 4839.61669,395.195739 4839.98826,395.02 C4840.22826,394.86 4840.57826,394.58 4840.57826,394.36 C4840.73826,279.46 4840.87493,164.563333 4840.98826,49.67 C4840.83645,47.710344 4840.55585,45.7628024 4840.14826,43.84 L4829.14826,43.84 C4811.48826,43.84 4793.81826,44.09 4776.14826,43.72 C4761.57826,43.42 4753.06826,33.72 4754.39826,19.84 C4755.16248,10.2094951 4762.3581,2.32231063 4771.87826,0.68 C4774.50251,0.218395659 4777.16388,0 4779.82826,0.03 C4808.15493,-0.01 4836.48826,-0.01 4864.82826,0.03 Z M4688.49826,391.76 C4644.24826,398.44 4614.35826,424.12 4598.79826,465.15 C4581.26826,511.35 4581.53826,558.56 4598.93826,604.85 C4610.75826,636.28 4632.52826,659.7 4665.01826,669.99 C4711.15826,684.6 4754.57826,678.42 4793.11826,647.55 C4812.40826,632.21 4826.90826,612.71 4838.66826,591.21 C4840.46826,587.94 4840.86826,583.6 4840.90826,579.74 C4841.13826,559.11 4841.02826,538.46 4841.02826,517.81 C4841.02826,497.16 4840.72826,476.5 4841.18826,455.81 C4841.33826,449.05 4838.98826,444.73 4833.93826,440.61 C4811.53041,422.121445 4785.97583,407.819824 4758.49826,398.39 C4736.0511,390.52118 4712.02358,388.24543 4688.49826,391.76 Z" id="Combined-Shape"></path>
            <path d="M6612.39826,352.62 C6656.77826,362.62 6687.99826,388.73 6707.30826,429.52 C6721.41826,459.31 6726.16826,491.09 6726.24826,523.67 C6726.24826,537.56 6719.44826,544.18 6705.38826,545.32 C6700.07826,545.75 6694.73826,545.94 6689.38826,545.95 C6606.42826,546.23 6523.46493,546.476667 6440.49826,546.69 L6429.82826,546.73 C6430.59826,602.59 6464.99826,662.21 6532.11826,674.57 C6554.79673,678.75456 6578.09401,678.223529 6600.55826,673.01 C6631.82826,665.88 6656.55826,649.01 6675.03826,622.95 C6676.95826,620.23 6678.80826,617.45 6680.95826,614.95 C6685.18826,609.95 6690.74826,607.95 6697.08826,609.35 C6701.63205,610.352892 6706.05675,611.8345 6710.28826,613.77 C6720.63826,618.56 6727.71826,632.51 6718.54826,645.77 C6697.93826,675.47 6671.24826,697.16 6636.91826,708.65 C6593.85826,723.06 6549.91826,724.47 6505.91826,713.65 C6460.91826,702.58 6427.13826,675.88 6403.40826,636.44 C6370.40826,581.62 6367.05826,500.5 6395.94826,443.44 C6421.52826,392.89 6462.66826,362.21 6518.17826,351.21 C6549.3357,345.060848 6581.43878,345.54127 6612.39826,352.62 Z M6554.31826,390.85 C6495.87826,393.06 6449.93826,430.12 6434.58826,486.55 C6433.21826,491.55 6432.27826,496.68 6431.01826,502.31 L6674.87826,502.31 C6673.33826,480.26 6669.00826,460.31 6658.98826,441.85 C6644.98826,416.01 6623.81826,399.31 6594.98826,393.72 C6581.58551,391.214636 6567.94003,390.251702 6554.31826,390.85 Z" id="Combined-Shape"></path>
            <path d="M4339.97826,352.77 C4381.49826,362.336667 4411.98159,386.063333 4431.42826,423.95 C4447.85826,455.83 4453.48826,490.04 4452.88826,525.49 C4452.68826,536.97 4446.73826,543.36 4435.42826,544.92 C4429.80999,545.628354 4424.15085,545.962424 4418.48826,545.92 C4334.82826,546.22 4251.16159,546.47 4167.48826,546.67 L4156.84826,546.73 C4156.84826,598.27 4188.77826,661.82 4259.36826,674.64 C4282.06603,678.783079 4305.37406,678.204378 4327.83826,672.94 C4358.70826,665.79 4383.21826,649.16 4401.60826,623.42 C4403.53826,620.71 4405.07826,617.55 4407.51826,615.42 C4410.41826,612.88 4413.85826,610.25 4417.51826,609.35 C4426.44826,607.11 4441.33826,614.03 4446.34826,621.88 C4451.35826,629.73 4451.02826,637.2 4445.71826,645.1 C4424.48826,676.69 4395.96826,698.7 4359.71826,710 C4318.40826,722.85 4276.37826,724 4234.35826,714 C4189.29826,703.26 4154.08826,677.59 4131.35826,637.53 C4095.41826,574.12 4092.68826,507.75 4123.91826,442.1 C4147.86826,391.77 4190.03826,362.1 4244.74826,351.27 C4276.23416,344.960193 4308.70671,345.471679 4339.97826,352.77 Z M4282.89826,390.54 C4220.52826,392.93 4172.20826,433.68 4159.36826,494.7 C4158.86826,497.09 4159.04826,499.64 4158.90826,502.26 L4400.12826,502.28 C4400.53225,501.557105 4400.84785,500.788252 4401.06826,499.99 C4401.17433,498.658776 4401.17433,497.321224 4401.06826,495.99 C4399.57826,475.44 4394.31826,455.99 4383.77826,438.17 C4370.41826,415.58 4351.13826,400.88 4325.52826,394.39 C4311.47826,390.82 4297.25826,389.99 4282.89826,390.54 Z" id="Combined-Shape"></path>
            <path d="M2156.97826,405.7 C2142.55826,399.5 2128.30826,396.12 2113.80826,393.96 C2080.96826,389.08 2048.02826,387.96 2015.42826,395.21 C2005.06603,397.584641 1995.13471,401.551775 1985.98826,406.97 C1969.22826,416.88 1962.32826,435.33 1965.98826,454.41 C1967.68826,463.16 1972.37826,469.22 1979.70826,474.25 C1998.31826,487.02 2019.44826,492.42 2041.04826,496.99 C2068.39826,502.76 2095.77826,508.48 2122.87826,515.28 C2135.71826,518.5 2148.15826,523.66 2160.36826,528.91 C2168.61712,532.51499 2176.46646,536.972555 2183.78826,542.21 C2220.61826,568.21 2227.66826,607.51 2216.39826,644.97 C2211.75826,660.37 2202.21826,672.65 2189.98826,683.03 C2167.72826,701.94 2141.88826,712.37 2113.14826,716.29 C2062.09826,723.24 2011.41826,721.87 1961.44826,708.68 C1948.62826,705.29 1936.18826,700.33 1923.75826,695.59 C1911.66826,690.97 1905.44826,682.65 1905.92826,668.78 C1906.69826,646.49 1906.53826,624.14 1905.98826,601.83 C1905.63826,587.31 1912.45826,581.33 1921.38826,577.78 C1932.12826,573.51 1945.61826,576.5 1952.91826,584.23 C1957.35826,588.92 1958.48826,594.59 1958.44826,600.8 C1958.34826,617.8 1958.44826,634.8 1958.44826,651.8 L1958.44826,661.8 C1975.00028,667.616981 1992.11752,671.679268 2009.51826,673.92 C2042.71826,678.47 2075.93826,678.92 2109.03826,672.92 C2121.5245,670.715699 2133.53924,666.382679 2144.55826,660.11 C2171.12826,644.83 2181.25826,603.49 2148.03826,580.19 C2130.27826,567.73 2110.40826,560.19 2089.66826,555.02 C2066.42826,549.17 2042.74826,545.02 2019.66826,538.65 C1999.83826,533.18 1979.96826,527.02 1961.18826,518.74 C1919.25826,500.25 1903.53826,452.9 1920.60826,411.85 C1924.34439,403.322739 1929.57693,395.5332 1936.05826,388.85 C1956.28826,367.55 1981.81826,356.07 2010.64826,351.63 C2071.53826,342.26 2130.84826,347.35 2188.06826,371.27 C2191.46279,372.637438 2194.7633,374.227565 2197.94826,376.03 C2205.39826,380.36 2209.50826,386.6 2209.43826,395.6 C2209.24826,418.6 2209.03826,441.6 2209.49826,464.55 C2209.76826,478.17 2198.70826,487.75 2183.75826,487.9 C2168.80826,488.05 2156.75826,479.04 2156.97826,464.46 C2157.16826,448.8 2156.97826,433.14 2156.97826,417.46 L2156.97826,405.7 Z" id="Path"></path>
            <path d="M5977.80826,416.9 C5986.89826,408.9 5995.56826,401.1 6004.33826,393.44 C6052.86826,351.06 6108.69826,338.44 6171.03826,352.96 C6176.84351,354.444172 6182.5083,356.431699 6187.96826,358.9 C6226.79826,375.45 6246.16826,405.21 6246.41826,447.1 C6246.76826,504.72 6246.51826,562.34 6246.52826,619.96 C6246.52826,628.96 6246.41826,637.96 6246.52826,646.96 C6246.71826,657.96 6250.43826,662.8 6261.01826,665.41 C6265.23392,666.341106 6269.54113,666.793966 6273.85826,666.76 C6286.18826,666.94 6298.52826,666.66 6310.85826,666.89 C6322.28826,667.11 6330.23826,673.34 6332.91826,683.58 C6336.23826,696.26 6328.80826,709.58 6315.91826,710.15 C6291.02826,711.26 6265.91826,713.15 6241.24826,707.41 C6209.05826,699.89 6194.40826,681.47 6194.33826,648.49 C6194.19826,583.87 6194.33826,519.26 6194.24826,454.64 C6194.26069,448.985387 6193.89655,443.336222 6193.15826,437.73 C6190.15826,416.05 6177.48826,402.27 6157.27826,395.13 C6139.18826,388.73 6120.47826,389.38 6101.90826,391.9 C6061.56826,397.35 6029.77826,417.9 6004.15826,448.78 C6002.88826,450.32 6001.64826,451.89 6000.41826,453.47 C5981.56826,477.54 5981.56826,477.54 5981.56826,507.8 L5981.56826,694.65 C5981.34826,707.73 5976.84826,714.55 5965.88826,718.49 C5954.49826,722.59 5940.59826,719.58 5933.95826,710.79 C5931.49826,707.52 5930.24826,703.07 5929.34826,698.97 C5928.56826,695.46 5929.01826,691.67 5929.01826,687.97 C5929.01826,600.04 5928.77826,512.11 5929.19826,424.18 C5929.28826,405.36 5922.88826,400.07 5905.69826,400.64 C5892.04826,401.1 5878.36826,400.98 5864.69826,400.64 C5850.08826,400.29 5841.33826,390.81 5842.30826,377.11 C5843.07826,366.11 5851.15826,357.23 5862.13826,357.04 C5884.13826,356.65 5906.13826,356.04 5928.08826,357.44 C5955.92826,359.22 5973.45826,377.59 5976.64826,405.65 C5977.14826,409.89 5977.52826,414.11 5977.80826,416.9 L5977.80826,416.9 Z" id="Path"></path>
            <path d="M886.258259,360.53 C944.768259,384.53 981.108259,427.93 994.258259,489.65 C1002.85826,529.82 1001.16826,570.07 985.478259,608.43 C961.058259,668.15 916.178259,704.26 852.988259,716.43 C809.878259,724.74 767.058259,722.02 726.918259,702.94 C670.668259,676.21 637.378259,631.27 626.608259,569.83 C625.808259,565.25 625.138259,560.62 624.788259,555.98 C624.248259,548.68 624.028259,541.36 623.84718,537.57 C623.718259,489.33 635.318259,448.49 664.248259,413.57 C695.948259,375.3 736.748259,354 786.128259,348.66 C820.458259,344.95 854.128259,347.38 886.258259,360.53 Z M802.748259,390.64 C746.938259,393.92 707.938259,421.96 687.208259,473.24 C670.868259,513.66 671.378259,555.55 687.478259,596.06 C702.558259,634 730.278259,659.67 769.878259,671.63 C786.998259,676.8 804.568259,677.8 822.288259,676.84 C861.758259,674.69 894.048259,658.39 918.418259,627.13 C939.386459,600.2317 947.221319,569.099368 947.977505,535.557166 L947.997118,534.564494 L947.820675,532.75071 C946.844895,522.436327 946.353259,512.041667 944.568259,501.87 C937.668259,462.49 917.918259,431.21 884.058259,409.5 C859.318259,393.66 831.658259,388.94 802.748259,390.64 Z" id="Combined-Shape"></path>
            <path d="M1347.95826,362.87 C1408.21826,389.99 1442.87826,437.18 1452.71826,502.44 C1454.29826,512.89 1454.66826,523.58 1455.55826,534.21 C1455.04826,574.57 1445.85826,612.21 1421.95826,645.29 C1390.30826,689.07 1347.01826,713.03 1293.46826,718.89 C1260.90826,722.46 1228.70826,720.6 1197.95826,708.97 C1132.95826,684.4 1094.43826,637.19 1082.81826,568.88 C1076.70826,532.88 1078.51826,496.88 1092.22826,462.71 C1116.90826,401.15 1162.22826,363.48 1227.51826,350.98 C1268.64826,343.1 1309.45826,345.54 1347.95826,362.87 Z M1257.79826,390.74 C1204.12826,394.13 1165.87826,420.86 1144.79826,469.74 C1126.50826,512.25 1127.10826,556.25 1144.79826,599.03 C1158.20826,631.47 1181.98826,654.68 1214.79826,667.93 C1235.57826,676.32 1257.39826,678.26 1279.57826,676.84 C1319.82826,674.28 1352.35826,657.15 1376.46826,624.69 C1396.18906,598.158 1403.43319,567.823212 1403.78956,535.432174 L1403.79826,534.49 C1403.38826,527.18 1403.12826,519.85 1402.51826,512.56 C1402.14171,508.246423 1401.47352,503.963293 1400.51826,499.74 C1388.51826,445.85 1357.93826,409.01 1303.41826,394.28 C1288.47826,390.28 1273.13826,389.77 1257.79826,390.74 Z" id="Combined-Shape"></path>
            <path d="M1586.27826,356.8 L1586.27826,225.76 C1586.27826,205.86 1602.37826,194.53 1621.56826,200.76 C1633.02826,204.46 1638.43826,211.58 1638.46826,223.67 C1638.54826,263.963333 1638.54826,304.256667 1638.46826,344.55 L1638.46826,356.83 L1795.81826,356.83 C1799.14826,356.83 1802.49826,356.7 1805.81826,357 C1816.93587,357.942553 1825.58749,367.058338 1825.94826,378.21 C1826.43826,388.53 1819.59826,397.56 1808.94826,399.9 C1805.021,400.586742 1801.03236,400.858238 1797.04826,400.71 C1748.38159,400.763333 1699.71493,400.763333 1651.04826,400.71 L1639.35826,400.71 C1638.92016,403.358748 1638.62639,406.029356 1638.47826,408.71 C1638.47826,474.983333 1638.50826,541.253333 1638.56826,607.52 C1638.66346,614.174064 1639.2753,620.810686 1640.39826,627.37 C1644.87826,655.82 1659.24826,670.07 1687.86826,674.72 C1726.53826,681.01 1763.47826,675.4 1798.71826,658.4 C1803.80826,655.94 1808.77826,653.22 1813.81826,650.63 C1819.09948,647.715868 1825.23326,646.739557 1831.15826,647.87 C1840.23826,649.6 1846.54826,654.15 1848.66826,663.33 C1850.85826,672.84 1847.04826,682.33 1838.05826,687.14 C1826.97876,693.237199 1815.52988,698.637676 1803.77826,703.31 C1757.21159,721.17 1709.44159,725.036667 1660.46826,714.91 C1655.59796,713.821115 1650.79625,712.445384 1646.08826,710.79 C1618.76826,701.67 1601.21826,683.1 1592.88826,655.65 C1587.61826,638.26 1586.15826,620.42 1586.17826,602.36 C1586.23826,539.42 1586.23826,476.48 1586.17826,413.54 L1586.17826,400.76 L1574.32826,400.76 C1559.66826,400.76 1544.99826,401 1530.32826,400.63 C1519.71826,400.37 1511.92826,394.21 1509.32826,385.13 C1506.83826,376.33 1509.79826,366.35 1517.67826,361.28 C1521.87197,358.696723 1526.65724,357.230159 1531.57826,357.02 C1545.88826,356.47 1560.22826,356.8 1574.57826,356.8 L1586.27826,356.8 Z" id="Path"></path>
            <path d="M5520.97826,412.21 C5504.72826,402.92 5488.03826,397.49 5470.61826,394.21 C5448.86826,390.08 5426.82826,388.21 5405.01826,392 C5356.20826,400.4 5322.75826,429.16 5305.27826,474.6 C5288.95826,516.99 5289.87826,560.6 5308.98826,602 C5331.16826,650.06 5369.47826,675.77 5423.18826,677.06 C5438.59826,677.43 5453.82826,676.22 5468.74826,672.33 C5496.44826,665.11 5519.18826,650.33 5536.60826,627.48 C5537.88648,625.943239 5539.06553,624.326634 5540.13826,622.64 C5550.07826,605.54 5562.73826,605 5581.79826,617.09 C5590.05826,622.33 5590.72826,633.68 5584.21826,644.03 C5576.19745,656.737251 5566.34838,668.193574 5554.98826,678.03 C5537.11984,693.659811 5515.95906,705.062229 5493.07826,711.39 C5453.46826,722.5 5413.46826,724.14 5373.61826,713.79 C5319.21826,699.67 5281.84826,664.68 5259.94826,613.99 C5238.17826,563.63 5236.05826,511.22 5256.75826,460.29 C5283.21826,395.2 5332.56826,356.92 5403.01826,348.87 C5452.99712,342.899518 5503.62067,351.98035 5548.40826,374.95 C5552.26826,376.9 5555.99826,379.11 5559.79826,381.19 C5569.06826,386.28 5573.65826,393.6 5573.42826,404.67 C5572.92826,428.3 5573.31826,451.95 5573.25826,475.6 C5573.25826,488.97 5568.36826,495.93 5556.74826,499.73 C5545.38826,503.44 5530.99826,499.95 5525.20826,490.84 C5522.53826,486.65 5521.29826,480.93 5521.15826,475.84 C5520.68826,458.2 5520.97826,440.55 5520.97826,422.9 L5520.97826,412.21 Z" id="Path"></path>
            <path d="M2824.81826,451.63 C2852.37826,498.9 2839.17826,564.25 2795.62826,594.85 C2776.66826,608.14 2755.32826,613.52 2732.37826,613.411651 C2689.05826,613.16 2655.52826,595.68 2635.75826,556.27 C2616.64826,518.17 2618.87826,454.78 2668.81826,419.47 C2708.33826,391.52 2788.49826,389.47 2824.81826,451.63 Z M2675.24826,449.51 C2655.77826,470.78 2651.69826,496.73 2656.04826,524.24 C2662.38826,564.3 2691.87826,589.12 2732.21826,589.100012 C2770.95826,589.100012 2799.92826,565.82 2807.79826,528.1 C2810.35571,515.999253 2810.61014,503.524968 2808.54826,491.33 C2803.40826,461.09 2787.66826,438.42 2757.66826,429.21 C2726.78826,419.71 2697.96826,424.7 2675.24826,449.51 Z" id="Combined-Shape"></path>
            <path d="M2902.92826,368.84 L2875.21826,368.84 C2872.54991,368.973363 2869.87524,368.89981 2867.21826,368.62 C2860.93826,367.62 2856.93826,363.04 2856.70826,357.1 C2856.27252,350.8042 2860.83535,345.266453 2867.09826,344.49 C2871.66826,343.81 2876.38826,344.02 2881.09826,343.97 C2888.04826,343.9 2894.99826,343.97 2903.09826,343.97 C2903.27826,339.34 2903.55826,335.49 2903.55826,331.64 C2903.55826,296 2903.33826,260.37 2903.71826,224.74 C2903.78097,213.098101 2904.78424,201.480301 2906.71826,190 C2911.62826,161.72 2928.54826,144.19 2956.71826,138.39 C2990.00826,131.54 3022.21826,135.05 3053.19826,149.53 C3062.46826,153.86 3066.90826,159.85 3066.19826,170.53 C3065.36826,182.46 3066.19826,194.53 3065.92826,206.48 C3065.70826,216.1 3059.09826,221.74 3049.62826,221 C3041.55826,220.37 3036.70826,215.73 3036.45826,207.61 C3036.15826,198.3 3036.35826,188.97 3036.34826,179.61 L3036.34826,168.77 C3025.24826,162.63 3013.68826,160.82 3002.14826,160.18 C2991.20872,159.464974 2980.22528,159.833433 2969.35826,161.28 C2952.35826,163.74 2940.90826,173.88 2936.59826,190.78 C2934.59826,198.46 2933.00826,206.48 2932.93826,214.36 C2932.54826,255.65 2932.68826,296.94 2932.67826,338.24 C2932.67826,339.53 2932.93826,340.83 2933.19826,343.24 C2936.73826,343.47 2940.19826,343.9 2943.70826,343.9 C2970.03826,343.96 2996.35826,343.9 3022.70826,343.96 C3026.03474,343.841871 3029.36507,344.02596 3032.65826,344.51 C3038.8767,345.48936 3043.2813,351.107521 3042.74826,357.38 C3042.45826,363.22 3038.33826,367.68 3031.97826,368.63 C3029.31958,368.884711 3026.64604,368.948208 3023.97826,368.82 L2933.06826,368.82 C2932.90826,372.98 2932.64826,376.51 2932.64826,380.03 C2932.64826,425.66 2931.64826,471.31 2932.82826,516.9 C2935.52826,619 2860.72826,699.9 2766.91826,715.8 C2663.53826,733.36 2564.16826,670.41 2538.05826,573.09 C2534.22183,558.598057 2532.13695,543.698371 2531.84826,528.71 C2531.78446,527.376875 2531.80116,526.041114 2531.89826,524.71 C2532.71826,516.4 2538.42826,510.91 2546.17826,510.94 C2553.74826,510.94 2559.67826,516.59 2560.43826,524.85 C2561.01826,531.14 2560.91826,537.5 2561.64826,543.77 C2569.77826,613.65 2622.64826,669.15 2690.03826,685.85 C2766.23826,704.74 2846.13826,670.63 2883.88826,602.49 C2896.35826,579.98 2903.35826,555.76 2903.48826,529.96 C2903.74826,478.68 2903.56826,427.39 2903.54826,376.11 C2903.54826,374.21 2903.21826,372.21 2902.92826,368.84 L2902.92826,368.84 Z" id="Path"></path>
            <path d="M5083.44826,400.76 L5071.09826,400.76 C5053.44826,400.76 5035.77826,401.07 5018.09826,400.6 C5004.93826,400.25 4996.57826,391.47 4996.51795,379.24 C4996.45826,366.42 5005.11826,357.04 5018.26826,356.93 C5050.57493,356.656667 5082.88826,356.656667 5115.20826,356.93 C5128.73826,357.05 5135.10826,363.78 5135.91826,377.36 C5136.05826,379.68 5135.96826,382.02 5135.96826,384.36 L5135.96826,690.99 C5135.92784,691.656054 5135.92784,692.323946 5135.96826,692.99 C5138.83826,716.4 5113.79826,724.64 5098.36826,718.15 C5089.28826,714.33 5083.72826,707.93 5083.47826,697.7 C5083.39826,694.37 5083.39826,691.04 5083.39826,687.7 L5083.39826,400.76 L5083.44826,400.76 Z" id="Path"></path>
            <path d="M5717.32826,400.76 L5657.32826,400.76 C5654.00478,400.880874 5650.67762,400.663085 5647.39826,400.11 C5635.79826,397.68 5629.31826,388.63 5630.33826,376.76 C5631.25826,365.95 5639.52826,357.83 5650.54826,356.94 C5651.54826,356.86 5652.54826,356.85 5653.54826,356.85 C5684.86826,356.85 5716.17826,356.72 5747.49826,356.91 C5762.42826,357.01 5768.66826,363.23 5769.58826,378.01 C5769.77826,381.01 5769.69826,384.01 5769.69826,387.01 L5769.69826,694.64 C5769.43826,707.64 5764.86826,714.57 5753.96826,718.51 C5742.54826,722.64 5728.65826,719.67 5722.03826,710.87 C5719.58826,707.61 5718.46826,703.15 5717.45826,699.06 C5716.75826,696.23 5717.27826,693.06 5717.27826,690.06 L5717.27826,400.76 L5717.32826,400.76 Z" id="Path"></path>
        </g>
        <rect id="Rectangle" fill-opacity="0" fill="#990000" fill-rule="nonzero" x="0" y="0" width="6790" height="1619"></rect>
    </g>
</svg>