<svg id="Layer_1" data-name="Layer 1" xmlns="http://www.w3.org/2000/svg" viewBox="0 0 6790 1619"><defs><style>.cls-1{fill:#fff;}</style></defs><path class="cls-1" d="M0,1619V0H6790V1619Zm3228.15-272.67a16.38,16.38,0,0,1,0-3.07c9.42-33.44,23.91-64.3,47.41-90.27,21.74-24,47.75-41.26,80-48a65.63,65.63,0,0,0,13.14-4.64c20.52-9.2,35.49-24.4,46.76-43.55,1.54-2.62,3.2-5.17,5.29-8.54,1.91,3.18,2.92,4.88,4,6.58,1.2,2,2.36,4,3.63,6,15.1,23.29,35.18,39.46,62.92,45.67a113.18,113.18,0,0,1,27,10c52.94,27.4,79.79,74.18,95.89,129.52-2.92,1.49-5.22,2.72-7.57,3.84a168.22,168.22,0,0,0-43.38,30c-25.46,24.08-42.9,53.31-55,85.9-11,29.54-16.71,60.24-19.41,91.54a21.25,21.25,0,0,0,18.73,23.16c10.65,1.41,20.89-6.18,23.25-17.44a96,96,0,0,0,1.12-9.91c3.39-32.68,10.53-64.39,25-94.1,12.77-26.19,30.06-48.68,54.76-64.85,3.18-2.08,6.67-3.7,11.27-6.22,1.11,9.89,2.49,18,2.85,26.23.86,19.62,1.85,39.27,1.61,58.89-.18,14.54,16.18,27.82,32,18.64,7.61-4.43,10.56-11.33,10.7-20.07.51-33-.82-65.93-6.32-98.56-6.76-40.05-18.46-78.46-40.06-113.21-29.9-48.11-71-81.48-127.1-94.6-8.34-1.95-15.18-6.68-21.34-12.43-8.95-8.35-14.94-18.67-19.4-29.94-8.32-21-11.56-43.08-11.71-65.51-.31-44.64-.11-89.27-.07-133.91,0-2.45.47-4.89.79-8,9.16,6.7,17.14,13.21,25.76,18.72A192.59,192.59,0,0,0,3529.22,959c44.87,11,80.06,36.87,107.26,73.75,30.33,41.15,44.23,88.36,49.4,138.48,1.64,15.87,1.71,31.9,2.45,47.86.67,14.21,9.51,23,22.59,22.49,12-.5,20.19-9.45,20.06-22.79-.25-25-1.69-49.91-6.24-74.57-1.12-6.08-2-12.2-3.29-20.09,4.87,2.52,8.12,4,11.23,5.84,51.54,29.61,84.14,73.7,99.13,130.87,3.45,13.16,4.92,26.83,7.83,40.14,2.61,11.92,12.88,18.31,24.78,16.19,10.93-2,18.21-12,16.81-23.48-.85-6.93-1.89-13.86-3.21-20.72-18.18-94.06-71.4-159.47-160.62-195-8.39-3.34-13.33-7.64-17.07-16-30.43-67.68-79.46-115.7-150.43-140-8.18-2.8-16.34-5.66-24.44-8.67-31-11.55-53.35-32-64.92-63.51-11.07-30.1-14.84-61.37-14.84-93.2q-.07-240.35,0-480.67c0-2.82.34-5.64.65-10.41,3.48,4.28,5.79,6.95,7.92,9.76q79.35,104.75,158.65,209.53c17.29,22.84,34.48,45.76,51.89,68.51,8.29,10.84,19.91,14.32,31.78,10.2,7-2.44,11.26-8,15.51-13.59q104-137.48,208.06-274.9c2.09-2.76,4.44-5.33,6.66-8l1.82.62V675.08c0,3.66-.12,7.33.09,11,1.63,28.22,15.31,44.84,42.73,51.78,24,6.06,48.4,3.83,72.64,3.22,11.08-.28,18.36-10.14,18.23-21.3-.15-12.68-9-21.74-22.2-22.08s-26.67.18-40-.25c-14.54-.46-18.92-5.21-18.92-19.63q0-229.33,0-458.68c0-2.88.41-5.76.7-9.5h11.43c16,0,32,.38,48-.24,13.07-.5,21.22-9.64,21-22s-8.92-21.48-21.47-21.6c-28.67-.28-57.33-.11-86,0-8.13,0-14.82,3.49-20.12,9.55-2.41,2.75-4.56,5.73-6.77,8.66q-117.23,155-234.45,310.06c-1.94,2.57-4.09,5-6.64,8.07-4.42-5.73-8.3-10.7-12.1-15.72q-115.16-152.21-230.21-304.5c-8.6-11.41-19-16.88-33.23-16.35s-28.66.1-43,.11c-12,0-24-.27-36,.19-11.53.44-19.85,9.19-20.47,20.54-.63,11.67,6.36,20.64,18,22.72a51.58,51.58,0,0,0,9,.49c15.33,0,30.66,0,46,.06,2.52,0,5,.5,8.34.85V223q0,240.33,0,480.66c0,25.64-.08,51.3-1.26,76.9s-6,50.88-16.07,74.81c-9.57,22.71-25.31,39.79-47.22,50.9-8.28,4.2-17.08,7.44-25.82,10.61-19.71,7.15-39.54,13.88-57.8,24.51-50.52,29.39-86,71.78-108.87,125.14a16,16,0,0,1-10.15,9.73c-84.06,31.4-138.17,90.29-161.06,177.16a271.88,271.88,0,0,0-7.24,42.26c-1.35,13.63,10,23.24,23.59,21.65,10.27-1.2,16.72-8.66,18.72-20.31,2.41-14.08,4.51-28.33,8.41-42,15.67-55,48-97.42,98.17-125.68,3-1.66,6.12-3,10.75-5.2-1.67,9.68-3,17.15-4.23,24.64a437.29,437.29,0,0,0-5.43,70.64c0,7.49,2.27,13.79,8.52,18.17,6.81,4.78,14.24,5.57,21.78,2,8-3.74,11.66-10.34,12.15-19.13,1.13-19.93,1.68-39.94,4-59.74,4.2-36,14.07-70.51,31.76-102.37,27.21-49,66.34-83.64,121.19-98.88,5.12-1.42,10.47-2.09,15.49-3.77,24.89-8.32,47.83-20.16,67.47-37.87,1.77-1.6,4-2.75,6.86-4.74.19,4.39.44,7.32.44,10.24,0,43.64.28,87.28-.15,130.91a271.59,271.59,0,0,1-3.57,39.73c-2.68,16.85-7.93,33-17.72,47.34-8.77,12.81-20.07,21.85-35.74,25.24-20.07,4.34-38.44,13-55.65,24-41,26.41-68.39,63.71-86.41,108.36-22.75,56.37-28.13,115.42-26.52,175.5.15,5.61,2.06,10.49,6.25,14.22,6.45,5.76,13.81,7.89,22.17,4.61,8.59-3.36,13.55-9.65,13.8-18.92.33-12-.28-24,.33-36,.85-16.54,2.45-33,3.85-51.18,4.45,2.22,7.43,3.45,10.16,5.1,15,9.08,27.49,21,38.13,34.87,19.21,25.06,31,53.57,37.57,84.13,3.64,16.88,5.41,34.16,8.12,51.24a21.11,21.11,0,0,0,42-2.65,48.37,48.37,0,0,0-.45-8c-1.83-12.84-3.26-25.78-5.76-38.5-7.52-38.32-21-74.29-44.17-106.1C3283.93,1380.46,3259.42,1359.45,3228.15,1346.33ZM110.34,209.63V719.55c0,3,0,6,0,9,.12,8.46,4.31,14.43,11.41,18.66,15.72,9.39,42,1.49,41.41-23.55-1.51-63.25-.49-126.56-.49-189.85v-13c5.45,0,9.7,0,13.94,0,71.32-.4,142.65-.48,214-1.55,10.71-.16,16.42,2.39,22,11.73,41,69,82.6,137.63,124.07,206.34,9.42,15.62,17.37,18,34.13,10.65a40.43,40.43,0,0,0,5.34-2.69c8.85-5.59,12-15.73,7.75-25.23a106.24,106.24,0,0,0-5.92-10.41q-57.71-96.45-115.4-192.91c-1.65-2.76-3.08-5.65-4.89-9,8.67-3.53,16.73-6.52,24.54-10.06,44.27-20.11,73.45-53.24,85.39-100.64,7.83-31.09,8.28-62.59,3.21-94.2-3.41-21.27-10.1-41.38-21.49-59.75-17.73-28.6-43.47-47.33-74.46-59.3-33.71-13-68.92-17.87-104.8-17.95q-157.49-.36-315-.18c-2,0-4,0-6,.15a21.37,21.37,0,0,0-19.68,20.35c-.74,11.45,5.56,20.16,16.74,22.59a52.91,52.91,0,0,0,10.91.82C74.32,209.67,91.61,209.63,110.34,209.63ZM4873.7,677.23c.87,7.11,1.39,13.75,2.54,20.28,4.14,23.39,18.34,39.4,42,41.9,24.07,2.54,48.53,2,72.8,1.72,11.17-.13,19.08-10.48,19.09-21.84,0-11.59-7.65-20.26-19.4-21.44-4.95-.5-10-.23-15-.24-11,0-22,.13-33-.06-13.83-.24-19.1-5.53-19.71-19.46-.18-4-.08-8-.08-12q0-300.78,0-601.56c0-3.33.1-6.67-.05-10-.52-11.33-6.93-19.52-17.88-22.4a43.63,43.63,0,0,0-10.87-1.29q-42.49-.15-85,0a43.16,43.16,0,0,0-7.95.65,21.14,21.14,0,0,0-17.48,19.16c-1.33,13.87,7.18,23.58,21.75,23.88,17.66.37,35.33.11,53,.12h11a44.8,44.8,0,0,1,.84,5.83q-.15,172.34-.41,344.69c0,.22-.35.5-.59.66a8.07,8.07,0,0,1-1.15.44c-.95-.71-2.06-1.44-3.06-2.29-37.52-31.73-81.33-45.92-130-46.06-73.82-.23-130,36.78-155.9,104.74-22.05,57.9-20.43,116.29,3.92,173.28,14.66,34.31,37.49,62.22,72.26,78.26,35.5,16.37,72.88,20.4,111.31,14.36,29.62-4.66,54.51-19.19,76.25-39.12C4853.65,699.6,4863.09,688.42,4873.7,677.23Zm1585.46-99.71h10.7q124.44-.35,248.89-.74c5.32,0,10.66-.2,16-.63,14.06-1.14,20.89-7.76,20.86-21.65-.08-32.58-4.83-64.36-18.94-94.15-19.31-40.79-50.53-66.91-94.91-76.9a226.21,226.21,0,0,0-94.22-1.41C6492,393,6450.86,423.68,6425.3,474.15c-28.89,57.07-25.51,138.19,7.46,193,23.73,39.44,57.48,66.14,102.51,77.21,44,10.81,87.92,9.4,131-5,34.33-11.49,61-33.18,81.63-62.88,9.17-13.21,2.09-27.16-8.26-32a65.86,65.86,0,0,0-13.2-4.42c-6.34-1.4-11.9.6-16.13,5.6-2.15,2.53-4,5.31-5.92,8-18.5,26.1-43.21,42.93-74.48,50.06a167.94,167.94,0,0,1-68.44,1.56C6494.33,693,6459.93,633.38,6459.16,577.52Zm-2273,0h10.61q125.49-.35,251-.75a127.77,127.77,0,0,0,16.94-1c11.31-1.56,17.26-8,17.46-19.43.6-35.45-5-69.66-21.46-101.54q-29.25-56.72-91.45-71.18a224.72,224.72,0,0,0-95.23-1.5c-54.71,10.88-96.88,40.5-120.83,90.83-31.23,65.65-28.5,132,7.44,195.43,22.71,40.06,57.92,65.73,103,76.47,42,10,84.05,8.82,125.36-4,36.29-11.3,64.81-33.31,86-64.9,5.31-7.9,5.66-15.33.63-23.22s-19.9-14.77-28.83-12.53c-3.63.9-7.07,3.53-10,6.07-2.44,2.14-4,5.3-5.91,8-18.39,25.74-42.9,42.37-73.77,49.52a167.93,167.93,0,0,1-68.47,1.7C4218.11,692.61,4186.18,629.06,4186.18,577.52Zm-1999.87-141v11.7c0,15.65.16,31.31,0,47-.18,14.58,11.92,23.6,26.78,23.44s26-9.73,25.74-23.35c-.46-23-.25-46-.06-68.95.07-9-4-15.24-11.49-19.57a83.12,83.12,0,0,0-9.88-4.76c-57.22-23.92-116.53-29-177.42-19.64-28.83,4.44-54.36,15.92-74.59,37.22a78,78,0,0,0-15.45,23c-17.07,41-1.35,88.4,40.58,106.89,18.78,8.28,38.65,14.44,58.48,19.91,23.08,6.37,46.76,10.52,70,16.37,20.74,5.22,40.61,12.71,58.37,25.17,33.22,23.3,23.09,64.64-3.48,79.92a110.7,110.7,0,0,1-35.52,12.81c-33.1,6.09-66.32,5.6-99.52,1a250.54,250.54,0,0,1-51.07-12.12v-10c0-17-.07-34,0-51,0-6.21-1.09-11.88-5.53-16.57-7.3-7.73-20.79-10.72-31.53-6.45-8.93,3.55-15.75,9.53-15.4,24.05.55,22.31.71,44.66-.06,66.95-.48,13.87,5.74,22.19,17.83,26.81,12.43,4.74,24.87,9.7,37.69,13.09,50,13.19,100.65,14.56,151.7,7.61,28.74-3.92,54.58-14.35,76.84-33.26,12.23-10.38,21.77-22.66,26.41-38.06C2257,638.29,2250,599,2213.12,573a129.15,129.15,0,0,0-23.37-13.29c-12.21-5.25-24.65-10.41-37.49-13.63-27.1-6.8-54.48-12.52-81.83-18.29-21.6-4.57-42.73-10-61.34-22.74-7.33-5-12-11.09-13.72-19.84-3.71-19.08,3.19-37.53,20-47.44A102.83,102.83,0,0,1,2044.76,426c32.6-7.28,65.54-6.13,98.38-1.25C2157.64,426.91,2171.89,430.29,2186.31,436.49Zm3820.83,11.2c-.28-2.79-.66-7-1.14-11.22-3.19-28.06-20.72-46.43-48.56-48.21-21.91-1.4-44-.79-65.95-.4-11,.19-19.06,9.11-19.83,20.07-1,13.7,7.78,23.18,22.39,23.53,13.66.34,27.34.46,41,0,17.19-.57,23.59,4.72,23.5,23.54-.42,87.93-.19,175.86-.18,263.79,0,3.66-.45,7.45.33,11,.9,4.1,2.15,8.55,4.61,11.82,6.64,8.79,20.54,11.8,31.93,7.7,11-3.94,15.46-10.76,15.68-23.84.05-2.67,0-5.33,0-8V538.57c0-30.26,0-30.26,18.85-54.33,1.23-1.58,2.47-3.15,3.74-4.69,25.62-30.92,57.41-51.43,97.75-56.88,18.57-2.52,37.28-3.17,55.37,3.23,20.21,7.14,32.9,20.92,35.88,42.6a127.37,127.37,0,0,1,1.09,16.91c.08,64.62-.05,129.23.09,193.85.07,33,14.72,51.4,46.91,58.92,24.64,5.75,49.78,3.85,74.67,2.74,12.91-.57,20.34-13.89,17-26.57-2.68-10.24-10.63-16.47-22.06-16.69-12.33-.23-24.67.05-37-.13a57.44,57.44,0,0,1-12.84-1.35c-10.58-2.61-14.3-7.48-14.49-18.45-.15-9,0-18,0-27,0-57.62.24-115.24-.11-172.86-.25-41.89-19.62-71.65-58.45-88.2a103.08,103.08,0,0,0-16.93-5.94c-62.34-14.51-118.17-1.9-166.7,40.48C6024.9,431.89,6016.23,439.65,6007.14,447.69Zm-5354,120.67c.18,3.79.4,11.11.94,18.41.35,4.64,1,9.27,1.82,13.85C666.71,662.06,700,707,756.3,733.72c40.14,19.08,83,21.8,126.07,13.49,63.19-12.17,108.07-48.28,132.49-108,15.69-38.36,17.38-78.61,8.78-118.78-13.2-61.72-49.54-105.14-108-129.12-32.09-13.15-65.8-15.58-100.13-11.87-49.38,5.34-90.18,26.64-121.88,64.91C664.65,479.28,653.05,520.12,653.18,568.36Zm831.71-3.4c-.92-10.59-1.26-21.28-2.84-31.77-9.84-65.26-44.5-112.45-104.76-139.57-38.5-17.33-79.31-19.77-120.44-11.89-65.27,12.5-110.61,50.17-135.29,111.73-13.71,34.21-15.52,70.22-9.41,106.17,11.62,68.31,50.16,115.52,115.14,140.09,30.75,11.63,63,13.49,95.51,9.92,53.55-5.86,96.84-29.82,128.49-73.6C1475.19,643,1484.38,605.32,1484.89,565Zm130.72-177.37H1604c-14.33,0-28.67-.33-43,.22a28.85,28.85,0,0,0-13.9,4.26c-7.88,5.07-10.84,15.05-8.35,23.85,2.57,9.08,10.36,15.24,21,15.5,14.66.37,29.33.12,44,.13h11.85v12.81q0,94.41,0,188.82c0,18.06,1.44,35.9,6.71,53.29,8.33,27.45,25.88,46,53.2,55.14a126.68,126.68,0,0,0,14.38,4.12q73.33,15.25,143.31-11.6A304.25,304.25,0,0,0,1867.48,718c9-4.82,12.8-14.3,10.61-23.81-2.12-9.18-8.43-13.73-17.51-15.46a25.86,25.86,0,0,0-17.34,2.76c-5,2.59-10,5.31-15.1,7.77-35.24,17-72.18,22.61-110.85,16.32-28.62-4.65-43-18.9-47.47-47.35a128.53,128.53,0,0,1-1.83-19.85q-.23-99.4-.09-198.81a74.07,74.07,0,0,1,.88-8h11.69q73,0,146,0a56.82,56.82,0,0,0,11.9-.81c10.61-2.34,17.45-11.37,17-21.69a22,22,0,0,0-20.08-21.26c-3.31-.3-6.66-.17-10-.17H1667.86V375.31q0-60.43,0-120.88c0-12.09-5.44-19.21-16.9-22.91-19.19-6.2-35.26,5.13-35.29,25q-.11,59.44,0,118.89ZM5550.31,443v10.64c0,17.65-.29,35.3.18,52.94.14,5.07,1.38,10.79,4.05,15,5.79,9.11,20.18,12.6,31.54,8.89,11.62-3.8,16.47-10.76,16.51-24.13.06-23.65-.33-47.3.17-70.93.23-11.07-4.36-18.39-13.63-23.48-3.8-2.08-7.53-4.29-11.39-6.24a252.87,252.87,0,0,0-145.39-26.08C5361.9,387.67,5312.55,426,5286.09,491c-20.7,50.93-18.58,103.34,3.19,153.7,21.9,50.69,59.27,85.68,113.67,99.8,39.85,10.35,79.85,8.71,119.46-2.4a158,158,0,0,0,61.91-33.36,153,153,0,0,0,29.23-34c6.51-10.35,5.84-21.7-2.42-26.94-19.06-12.09-31.72-11.55-41.66,5.55a47.08,47.08,0,0,1-3.53,4.84c-17.42,22.81-40.16,37.63-67.86,44.85-14.92,3.89-30.15,5.1-45.56,4.73-53.71-1.29-92-27-114.2-75.06-19.11-41.43-20-85-3.71-127.4,17.48-45.44,50.93-74.2,99.74-82.6,21.81-3.76,43.85-1.92,65.6,2.21C5517.37,428.31,5534.06,433.74,5550.31,443Zm-2618-43.4c.29,3.36.62,5.33.62,7.3,0,51.28.2,102.57-.06,153.85-.13,25.8-7.13,50-19.6,72.53-37.75,68.14-117.65,102.25-193.85,83.36C2652,700,2599.11,644.47,2591,574.59c-.73-6.27-.63-12.63-1.21-18.92-.76-8.26-6.69-13.89-14.26-13.91-7.75,0-13.46,5.46-14.28,13.77a33.18,33.18,0,0,0-.05,4,187.53,187.53,0,0,0,6.21,44.38c26.11,97.32,125.48,160.27,228.86,142.71,93.81-15.94,168.61-96.8,165.91-198.9-1.2-45.59-.21-91.24-.18-136.87,0-3.52.26-7,.42-11.21h90.91a55.8,55.8,0,0,0,8-.19c6.36-.95,10.48-5.41,10.77-11.25A12,12,0,0,0,3062,375.31a55,55,0,0,0-9.95-.55c-26.33,0-52.65,0-79-.06-3.49,0-7-.43-10.51-.66-.26-2.44-.52-3.74-.52-5,0-41.3-.13-82.59.26-123.88.07-7.88,1.7-15.9,3.66-23.58,4.31-16.9,15.72-27,32.76-29.5a166.3,166.3,0,0,1,32.79-1.1c11.54.64,23.1,2.45,34.2,8.59,0,3.61,0,7.23,0,10.84,0,9.33-.19,18.66.11,28,.25,8.12,5.1,12.76,13.17,13.39,9.47.74,16.08-4.9,16.3-14.52.28-12-.56-24,.27-35.95.74-10.65-3.7-16.64-13-21-31-14.48-63.19-18-96.48-11.14-28.17,5.8-45.09,23.33-50,51.61a216.13,216.13,0,0,0-3,34.74c-.38,35.63-.12,71.26-.16,106.9,0,3.85-.28,7.7-.46,12.33-8.13,0-15.08-.06-22,0-4.66.05-9.38-.16-14,.52a11.88,11.88,0,0,0-10.39,12.61c.23,5.94,4.23,10.51,10.51,11.52a51.73,51.73,0,0,0,8,.22C2913.49,399.64,2922.44,399.63,2932.26,399.63Zm2180.52,31.92V718.49c0,3.33,0,6.66.08,10,.25,10.23,5.81,16.63,14.89,20.45,15.43,6.49,40.47-1.75,37.6-25.16a16.51,16.51,0,0,1,0-2V415.16c0-2.33.09-4.67-.05-7-.81-13.58-7.18-20.31-20.71-20.43q-48.46-.42-96.94,0c-13.15.11-21.81,9.49-21.75,22.31.06,12.23,8.42,21,21.58,21.36,17.64.47,35.31.15,53,.16Zm633.88,0v289.3c0,3-.52,6.13.18,9,1,4.09,2.13,8.55,4.58,11.81,6.62,8.8,20.51,11.77,31.93,7.64,10.9-3.94,15.47-10.88,15.73-23.87,0-1.67,0-3.33,0-5q0-151.3,0-302.63c0-3,.08-6-.11-9-.92-14.78-7.16-21-22.09-21.1-31.32-.19-62.63-.06-93.95-.06-1,0-2,0-3,.09-11,.89-19.29,9-20.21,19.82-1,11.87,5.46,20.92,17.06,23.35a49,49,0,0,0,9.93.65c16.32.06,32.65,0,49,0ZM2761.71,644.2c22.95.11,44.28-5.27,63.21-18.56,43.55-30.6,56.75-95.95,29.19-143.22-36.28-62.2-116.44-60.11-156-32.16-49.94,35.31-52.17,98.7-33.06,136.8C2684.86,626.47,2718.39,644,2761.71,644.2ZM5135.05,253.94c19.6,0,33.89-13.06,34.25-31.35S5154.47,190,5135,190.14c-19.19.13-33,13.83-32.8,32.54C5102.36,241,5116,253.91,5135.05,253.94Zm634.11,0c19.49-.06,33.58-13.36,33.64-31.73s-14.14-31.89-33.47-32.06S5736,203.24,5736,222,5749.57,254,5769.16,253.94Z"/><path d="M3228.15,1346.33c31.27,13.12,55.78,34.13,75.39,61,23.21,31.81,36.65,67.78,44.17,106.1,2.5,12.72,3.93,25.66,5.76,38.5a48.37,48.37,0,0,1,.45,8,21.11,21.11,0,0,1-42,2.65c-2.71-17.08-4.48-34.36-8.12-51.24-6.61-30.56-18.36-59.07-37.57-84.13-10.64-13.88-23.1-25.79-38.13-34.87-2.73-1.65-5.71-2.88-10.16-5.1-1.4,18.14-3,34.64-3.85,51.18-.61,12,0,24-.33,36-.25,9.27-5.21,15.56-13.8,18.92-8.36,3.28-15.72,1.15-22.17-4.61-4.19-3.73-6.1-8.61-6.25-14.22-1.61-60.08,3.77-119.13,26.52-175.5,18-44.65,45.43-82,86.41-108.36,17.21-11.1,35.58-19.71,55.65-24,15.67-3.39,27-12.43,35.74-25.24,9.79-14.3,15-30.49,17.72-47.34a271.59,271.59,0,0,0,3.57-39.73c.43-43.63.17-87.27.15-130.91,0-2.92-.25-5.85-.44-10.24-2.91,2-5.09,3.14-6.86,4.74-19.64,17.71-42.58,29.55-67.47,37.87-5,1.68-10.37,2.35-15.49,3.77-54.85,15.24-94,49.87-121.19,98.88-17.69,31.86-27.56,66.36-31.76,102.37-2.31,19.8-2.86,39.81-4,59.74-.49,8.79-4.16,15.39-12.15,19.13-7.54,3.53-15,2.74-21.78-2-6.25-4.38-8.5-10.68-8.52-18.17a437.29,437.29,0,0,1,5.43-70.64c1.21-7.49,2.56-15,4.23-24.64-4.63,2.23-7.79,3.54-10.75,5.2-50.19,28.26-82.5,70.63-98.17,125.68-3.9,13.7-6,28-8.41,42-2,11.65-8.45,19.11-18.72,20.31-13.64,1.59-24.94-8-23.59-21.65a271.88,271.88,0,0,1,7.24-42.26c22.89-86.87,77-145.76,161.06-177.16a16,16,0,0,0,10.15-9.73c22.84-53.36,58.35-95.75,108.87-125.14,18.26-10.63,38.09-17.36,57.8-24.51,8.74-3.17,17.54-6.41,25.82-10.61,21.91-11.11,37.65-28.19,47.22-50.9,10.07-23.93,14.89-49.09,16.07-74.81s1.25-51.26,1.26-76.9q.15-240.33,0-480.66V210.52c-3.3-.35-5.82-.84-8.34-.85-15.33-.08-30.66,0-46-.06a51.58,51.58,0,0,1-9-.49c-11.62-2.08-18.61-11.05-18-22.72.62-11.35,8.94-20.1,20.47-20.54,12-.46,24-.17,36-.19,14.33,0,28.68.41,43-.11s24.63,4.94,33.23,16.35q114.89,152.43,230.21,304.5c3.8,5,7.68,10,12.1,15.72,2.55-3.09,4.7-5.5,6.64-8.07Q3810.79,339,3928,184c2.21-2.93,4.36-5.91,6.77-8.66,5.3-6.06,12-9.53,20.12-9.55,28.67-.08,57.33-.25,86,0,12.55.12,21.24,9.35,21.47,21.6s-7.92,21.47-21,22c-16,.62-32,.21-48,.24H3982c-.29,3.74-.7,6.62-.7,9.5q0,229.33,0,458.68c0,14.42,4.38,19.17,18.92,19.63,13.32.43,26.66-.09,40,.25s22,9.4,22.2,22.08c.13,11.16-7.15,21-18.23,21.3-24.24.61-48.67,2.84-72.64-3.22-27.42-6.94-41.1-23.56-42.73-51.78-.21-3.66-.09-7.33-.09-11V267.72l-1.82-.62c-2.22,2.66-4.57,5.23-6.66,8Q3816.13,412.52,3712.12,550c-4.25,5.61-8.47,11.15-15.51,13.59-11.87,4.12-23.49.64-31.78-10.2-17.41-22.75-34.6-45.67-51.89-68.51q-79.3-104.78-158.65-209.53c-2.13-2.81-4.44-5.48-7.92-9.76-.31,4.77-.65,7.59-.65,10.41q-.06,240.33,0,480.67c0,31.83,3.77,63.1,14.84,93.2,11.57,31.46,33.88,52,64.92,63.51,8.1,3,16.26,5.87,24.44,8.67,71,24.33,120,72.35,150.43,140,3.74,8.31,8.68,12.61,17.07,16,89.22,35.48,142.44,100.89,160.62,195,1.32,6.86,2.36,13.79,3.21,20.72,1.4,11.53-5.88,21.53-16.81,23.48-11.9,2.12-22.17-4.27-24.78-16.19-2.91-13.31-4.38-27-7.83-40.14-15-57.17-47.59-101.26-99.13-130.87-3.11-1.79-6.36-3.32-11.23-5.84,1.28,7.89,2.17,14,3.29,20.09,4.55,24.66,6,49.58,6.24,74.57.13,13.34-8.08,22.29-20.06,22.79-13.08.55-21.92-8.28-22.59-22.49-.74-16-.81-32-2.45-47.86-5.17-50.12-19.07-97.33-49.4-138.48-27.2-36.88-62.39-62.74-107.26-73.75a192.59,192.59,0,0,1-58.52-24.75c-8.62-5.51-16.6-12-25.76-18.72-.32,3.13-.78,5.57-.79,8,0,44.64-.24,89.27.07,133.91.15,22.43,3.39,44.47,11.71,65.51,4.46,11.27,10.45,21.59,19.4,29.94,6.16,5.75,13,10.48,21.34,12.43,56.1,13.12,97.2,46.49,127.1,94.6,21.6,34.75,33.3,73.16,40.06,113.21,5.5,32.63,6.83,65.53,6.32,98.56-.14,8.74-3.09,15.64-10.7,20.07-15.8,9.18-32.16-4.1-32-18.64.24-19.62-.75-39.27-1.61-58.89-.36-8.19-1.74-16.34-2.85-26.23-4.6,2.52-8.09,4.14-11.27,6.22-24.7,16.17-42,38.66-54.76,64.85-14.47,29.71-21.61,61.42-25,94.1a96,96,0,0,1-1.12,9.91c-2.36,11.26-12.6,18.85-23.25,17.44a21.25,21.25,0,0,1-18.73-23.16c2.7-31.3,8.44-62,19.41-91.54,12.1-32.59,29.54-61.82,55-85.9a168.22,168.22,0,0,1,43.38-30c2.35-1.12,4.65-2.35,7.57-3.84-16.1-55.34-42.95-102.12-95.89-129.52a113.18,113.18,0,0,0-27-10c-27.74-6.21-47.82-22.38-62.92-45.67-1.27-2-2.43-4-3.63-6-1-1.7-2-3.4-4-6.58-2.09,3.37-3.75,5.92-5.29,8.54-11.27,19.15-26.24,34.35-46.76,43.55a65.63,65.63,0,0,1-13.14,4.64c-32.29,6.7-58.3,23.92-80,48-23.5,26-38,56.83-47.41,90.27A16.38,16.38,0,0,0,3228.15,1346.33Z"/><path d="M110.34,209.63c-18.73,0-36,0-53.3,0a52.91,52.91,0,0,1-10.91-.82C35,206.34,28.65,197.63,29.39,186.18a21.37,21.37,0,0,1,19.68-20.35c2-.19,4-.15,6-.15q157.49,0,315,.18c35.88.08,71.09,4.95,104.8,17.95,31,12,56.73,30.7,74.46,59.3,11.39,18.37,18.08,38.48,21.49,59.75,5.07,31.61,4.62,63.11-3.21,94.2-11.94,47.4-41.12,80.53-85.39,100.64-7.81,3.54-15.87,6.53-24.54,10.06,1.81,3.35,3.24,6.24,4.89,9q57.68,96.47,115.4,192.91a106.24,106.24,0,0,1,5.92,10.41c4.3,9.5,1.1,19.64-7.75,25.23a40.43,40.43,0,0,1-5.34,2.69c-16.76,7.39-24.71,5-34.13-10.65C495.17,668.64,453.54,600,412.57,531c-5.55-9.34-11.26-11.89-22-11.73-71.31,1.07-142.64,1.15-214,1.55-4.24,0-8.49,0-13.94,0v13c0,63.29-1,126.6.49,189.85.6,25-25.69,32.94-41.41,23.55-7.1-4.23-11.29-10.2-11.41-18.66-.05-3,0-6,0-9V209.63ZM163.26,477.1c2.57.24,4.21.53,5.85.53,66.65,0,133.31.25,200-.22,26.41-.18,52.47-3.93,77.34-13.59q59.82-23.26,71.93-86.3a192.23,192.23,0,0,0-.75-75.42c-4.54-22-13.91-41.61-31-56.9-13.67-12.24-29.81-19.95-47.16-25.29-26.38-8.12-53.51-10.35-81-10.3q-92.48.15-185,0H163.26Z"/><path d="M4873.7,677.23c-10.61,11.19-20.05,22.37-30.75,32.19-21.74,19.93-46.63,34.46-76.25,39.12-38.43,6-75.81,2-111.31-14.36-34.77-16-57.6-43.95-72.26-78.26-24.35-57-26-115.38-3.92-173.28,25.89-68,82.08-105,155.9-104.74,48.65.14,92.46,14.33,130,46.06,1,.85,2.11,1.58,3.06,2.29a8.07,8.07,0,0,0,1.15-.44c.24-.16.59-.44.59-.66q.24-172.35.41-344.69a44.8,44.8,0,0,0-.84-5.83h-11c-17.66,0-35.33.25-53-.12-14.57-.3-23.08-10-21.75-23.88a21.14,21.14,0,0,1,17.48-19.16,43.16,43.16,0,0,1,7.95-.65q42.49-.06,85,0A43.63,43.63,0,0,1,4905,32.14c10.95,2.88,17.36,11.07,17.88,22.4.15,3.33.05,6.67.05,10q0,300.78,0,601.56c0,4-.1,8,.08,12,.61,13.93,5.88,19.22,19.71,19.46,11,.19,22,0,33,.06,5,0,10-.26,15,.24,11.75,1.18,19.41,9.85,19.4,21.44,0,11.36-7.92,21.71-19.09,21.84-24.27.29-48.73.82-72.8-1.72-23.63-2.5-37.83-18.51-42-41.9C4875.09,691,4874.57,684.34,4873.7,677.23Zm-3.34-128.63c0-20.65-.3-41.31.16-62,.15-6.76-2.2-11.08-7.25-15.2a241.93,241.93,0,0,0-75.44-42.22,146.27,146.27,0,0,0-70-6.63c-44.25,6.68-74.14,32.36-89.7,73.39-17.53,46.2-17.26,93.41.14,139.7,11.82,31.43,33.59,54.85,66.08,65.14,46.14,14.61,89.56,8.43,128.1-22.44C4841.74,663,4856.24,643.5,4868,622c1.8-3.27,2.2-7.61,2.24-11.47C4870.47,589.9,4870.36,569.25,4870.36,548.6Z"/><path d="M6459.16,577.52c.77,55.86,35.17,115.48,102.29,127.84a167.94,167.94,0,0,0,68.44-1.56c31.27-7.13,56-24,74.48-50.06,1.92-2.72,3.77-5.5,5.92-8,4.23-5,9.79-7,16.13-5.6a65.86,65.86,0,0,1,13.2,4.42c10.35,4.79,17.43,18.74,8.26,32-20.61,29.7-47.3,51.39-81.63,62.88-43.06,14.41-87,15.82-131,5-45-11.07-78.78-37.77-102.51-77.21-33-54.82-36.35-135.94-7.46-193C6450.86,423.68,6492,393,6547.51,382a226.21,226.21,0,0,1,94.22,1.41c44.38,10,75.6,36.11,94.91,76.9,14.11,29.79,18.86,61.57,18.94,94.15,0,13.89-6.8,20.51-20.86,21.65-5.31.43-10.65.62-16,.63q-124.44.42-248.89.74Zm245.05-44.42c-1.54-22.05-5.87-42-15.89-60.46-14-25.84-35.17-42.54-64-48.13a178.67,178.67,0,0,0-40.67-2.87c-58.44,2.21-104.38,39.27-119.73,95.7-1.37,5-2.31,10.13-3.57,15.76Z"/><path d="M4186.18,577.52c0,51.54,31.93,115.09,102.52,127.91a167.93,167.93,0,0,0,68.47-1.7c30.87-7.15,55.38-23.78,73.77-49.52,1.93-2.71,3.47-5.87,5.91-8,2.9-2.54,6.34-5.17,10-6.07,8.93-2.24,23.82,4.68,28.83,12.53s4.68,15.32-.63,23.22c-21.23,31.59-49.75,53.6-86,64.9-41.31,12.85-83.34,14-125.36,4-45.06-10.74-80.27-36.41-103-76.47-35.94-63.41-38.67-129.78-7.44-195.43,23.95-50.33,66.12-80,120.83-90.83a224.72,224.72,0,0,1,95.23,1.5q62.28,14.35,91.45,71.18c16.43,31.88,22.06,66.09,21.46,101.54-.2,11.48-6.15,17.87-17.46,19.43a127.77,127.77,0,0,1-16.94,1q-125.49.45-251,.75Zm243.28-44.45a10.33,10.33,0,0,0,.94-2.29,25.18,25.18,0,0,0,0-4c-1.49-20.55-6.75-40-17.29-57.82-13.36-22.59-32.64-37.29-58.25-43.78-14.05-3.57-28.27-4.4-42.63-3.85-62.37,2.39-110.69,43.14-123.53,104.16-.5,2.39-.32,4.94-.46,7.56Z"/><path d="M2186.31,436.49c-14.42-6.2-28.67-9.58-43.17-11.74-32.84-4.88-65.78-6-98.38,1.25a102.83,102.83,0,0,0-29.44,11.76c-16.76,9.91-23.66,28.36-20,47.44,1.7,8.75,6.39,14.81,13.72,19.84,18.61,12.77,39.74,18.17,61.34,22.74,27.35,5.77,54.73,11.49,81.83,18.29,12.84,3.22,25.28,8.38,37.49,13.63A129.15,129.15,0,0,1,2213.12,573c36.83,26,43.88,65.3,32.61,102.76-4.64,15.4-14.18,27.68-26.41,38.06-22.26,18.91-48.1,29.34-76.84,33.26-51.05,6.95-101.73,5.58-151.7-7.61-12.82-3.39-25.26-8.35-37.69-13.09-12.09-4.62-18.31-12.94-17.83-26.81.77-22.29.61-44.64.06-66.95-.35-14.52,6.47-20.5,15.4-24.05,10.74-4.27,24.23-1.28,31.53,6.45,4.44,4.69,5.57,10.36,5.53,16.57-.1,17,0,34,0,51v10a250.54,250.54,0,0,0,51.07,12.12c33.2,4.55,66.42,5,99.52-1a110.7,110.7,0,0,0,35.52-12.81c26.57-15.28,36.7-56.62,3.48-79.92-17.76-12.46-37.63-20-58.37-25.17-23.24-5.85-46.92-10-70-16.37-19.83-5.47-39.7-11.63-58.48-19.91-41.93-18.49-57.65-65.84-40.58-106.89a78,78,0,0,1,15.45-23c20.23-21.3,45.76-32.78,74.59-37.22,60.89-9.37,120.2-4.28,177.42,19.64a83.12,83.12,0,0,1,9.88,4.76c7.45,4.33,11.56,10.57,11.49,19.57-.19,23-.4,46,.06,68.95.27,13.62-10.79,23.2-25.74,23.35s-27-8.86-26.78-23.44c.19-15.66,0-31.32,0-47Z"/><path d="M6007.14,447.69c9.09-8,17.76-15.8,26.53-23.46,48.53-42.38,104.36-55,166.7-40.48a103.08,103.08,0,0,1,16.93,5.94c38.83,16.55,58.2,46.31,58.45,88.2.35,57.62.1,115.24.11,172.86,0,9-.11,18,0,27,.19,11,3.91,15.84,14.49,18.45a57.44,57.44,0,0,0,12.84,1.35c12.33.18,24.67-.1,37,.13,11.43.22,19.38,6.45,22.06,16.69,3.32,12.68-4.11,26-17,26.57-24.89,1.11-50,3-74.67-2.74-32.19-7.52-46.84-25.94-46.91-58.92-.14-64.62,0-129.23-.09-193.85a127.37,127.37,0,0,0-1.09-16.91c-3-21.68-15.67-35.46-35.88-42.6-18.09-6.4-36.8-5.75-55.37-3.23-40.34,5.45-72.13,26-97.75,56.88-1.27,1.54-2.51,3.11-3.74,4.69-18.85,24.07-18.85,24.07-18.85,54.33V717.44c0,2.66,0,5.32,0,8-.22,13.08-4.72,19.9-15.68,23.84-11.39,4.1-25.29,1.09-31.93-7.7-2.46-3.27-3.71-7.72-4.61-11.82-.78-3.51-.33-7.3-.33-11,0-87.93-.24-175.86.18-263.79.09-18.82-6.31-24.11-23.5-23.54-13.65.46-27.33.34-41,0-14.61-.35-23.36-9.83-22.39-23.53.77-11,8.85-19.88,19.83-20.07,22-.39,44-1,65.95.4,27.84,1.78,45.37,20.15,48.56,48.21C6006.48,440.68,6006.86,444.9,6007.14,447.69Z"/><path d="M653.18,568.36c-.13-48.24,11.47-89.08,40.4-124,31.7-38.27,72.5-59.57,121.88-64.91,34.33-3.71,68-1.28,100.13,11.87,58.51,24,94.85,67.4,108,129.12,8.6,40.17,6.91,80.42-8.78,118.78-24.42,59.72-69.3,95.83-132.49,108-43.11,8.31-85.93,5.59-126.07-13.49C700,707,666.71,662.06,655.94,600.62c-.8-4.58-1.47-9.21-1.82-13.85C653.58,579.47,653.36,572.15,653.18,568.36Zm324.15-3c-1.1-10.91-1.54-21.93-3.43-32.7C967,493.28,947.25,462,913.39,440.29c-24.74-15.84-52.4-20.56-81.31-18.86-55.81,3.28-94.81,31.32-115.54,82.6-16.34,40.42-15.83,82.31.27,122.82,15.08,37.94,42.8,63.61,82.4,75.57,17.12,5.17,34.69,6.17,52.41,5.21,39.47-2.15,71.76-18.45,96.13-49.71C968.93,630.75,976.71,599.26,977.33,565.33Z"/><path d="M1484.89,565c-.51,40.36-9.7,78-33.6,111.08-31.65,43.78-74.94,67.74-128.49,73.6-32.56,3.57-64.76,1.71-95.51-9.92-65-24.57-103.52-71.78-115.14-140.09-6.11-36-4.3-72,9.41-106.17,24.68-61.56,70-99.23,135.29-111.73,41.13-7.88,81.94-5.44,120.44,11.89,60.26,27.12,94.92,74.31,104.76,139.57C1483.63,543.68,1484,554.37,1484.89,565Zm-51.76.28c-.41-7.31-.67-14.64-1.28-21.93a95.92,95.92,0,0,0-2-12.82c-12-53.89-42.58-90.73-97.1-105.46-14.94-4-30.28-4.51-45.62-3.54-53.67,3.39-91.92,30.12-113,79-18.29,42.51-17.69,86.51,0,129.29,13.41,32.44,37.19,55.65,70,68.9,20.78,8.39,42.6,10.33,64.78,8.91,40.25-2.56,72.78-19.69,96.89-52.15C1425.72,628.68,1432.91,598,1433.13,565.24Z"/><path d="M1615.61,387.59V375.44q0-59.44,0-118.89c0-19.9,16.1-31.23,35.29-25,11.46,3.7,16.87,10.82,16.9,22.91q.12,60.44,0,120.88v12.28h157.35c3.33,0,6.68-.13,10,.17A22,22,0,0,1,1855.28,409c.49,10.32-6.35,19.35-17,21.69a56.82,56.82,0,0,1-11.9.81q-73,.08-146,0h-11.69a74.07,74.07,0,0,0-.88,8q0,99.41.09,198.81a128.53,128.53,0,0,0,1.83,19.85c4.48,28.45,18.85,42.7,47.47,47.35,38.67,6.29,75.61.68,110.85-16.32,5.09-2.46,10.06-5.18,15.1-7.77a25.86,25.86,0,0,1,17.34-2.76c9.08,1.73,15.39,6.28,17.51,15.46,2.19,9.51-1.62,19-10.61,23.81a304.25,304.25,0,0,1-34.28,16.17q-69.85,26.79-143.31,11.6a126.68,126.68,0,0,1-14.38-4.12c-27.32-9.12-44.87-27.69-53.2-55.14-5.27-17.39-6.73-35.23-6.71-53.29q.09-94.41,0-188.82V431.55h-11.85c-14.66,0-29.33.24-44-.13-10.61-.26-18.4-6.42-21-15.5-2.49-8.8.47-18.78,8.35-23.85a28.85,28.85,0,0,1,13.9-4.26c14.31-.55,28.65-.22,43-.22Z"/><path d="M5550.31,443c-16.25-9.29-32.94-14.72-50.36-18-21.75-4.13-43.79-6-65.6-2.21-48.81,8.4-82.26,37.16-99.74,82.6-16.32,42.39-15.4,86,3.71,127.4,22.18,48.06,60.49,73.77,114.2,75.06,15.41.37,30.64-.84,45.56-4.73,27.7-7.22,50.44-22,67.86-44.85a47.08,47.08,0,0,0,3.53-4.84c9.94-17.1,22.6-17.64,41.66-5.55,8.26,5.24,8.93,16.59,2.42,26.94a153,153,0,0,1-29.23,34,158,158,0,0,1-61.91,33.36c-39.61,11.11-79.61,12.75-119.46,2.4-54.4-14.12-91.77-49.11-113.67-99.8-21.77-50.36-23.89-102.77-3.19-153.7,26.46-65.09,75.81-103.37,146.26-111.42a252.87,252.87,0,0,1,145.39,26.08c3.86,1.95,7.59,4.16,11.39,6.24,9.27,5.09,13.86,12.41,13.63,23.48-.5,23.63-.11,47.28-.17,70.93,0,13.37-4.89,20.33-16.51,24.13-11.36,3.71-25.75.22-31.54-8.89-2.67-4.19-3.91-9.91-4.05-15-.47-17.64-.18-35.29-.18-52.94Z"/><path d="M2932.26,399.63c-9.82,0-18.77,0-27.71,0a51.73,51.73,0,0,1-8-.22c-6.28-1-10.28-5.58-10.51-11.52a11.88,11.88,0,0,1,10.39-12.61c4.57-.68,9.29-.47,14-.52,6.95-.07,13.9,0,22,0,.18-4.63.46-8.48.46-12.33,0-35.64-.22-71.27.16-106.9a216.13,216.13,0,0,1,3-34.74c4.91-28.28,21.83-45.81,50-51.61,33.29-6.85,65.5-3.34,96.48,11.14,9.27,4.33,13.71,10.32,13,21-.83,11.93,0,24-.27,35.95-.22,9.62-6.83,15.26-16.3,14.52-8.07-.63-12.92-5.27-13.17-13.39-.3-9.31-.1-18.64-.11-28,0-3.61,0-7.23,0-10.84-11.1-6.14-22.66-7.95-34.2-8.59a166.3,166.3,0,0,0-32.79,1.1c-17,2.46-28.45,12.6-32.76,29.5-2,7.68-3.59,15.7-3.66,23.58-.39,41.29-.25,82.58-.26,123.88,0,1.29.26,2.59.52,5,3.54.23,7,.66,10.51.66,26.33.06,52.65,0,79,.06a55,55,0,0,1,9.95.55,12,12,0,0,1,10.09,12.87c-.29,5.84-4.41,10.3-10.77,11.25a55.8,55.8,0,0,1-8,.19H2962.4c-.16,4.16-.42,7.69-.42,11.21,0,45.63-1,91.28.18,136.87,2.7,102.1-72.1,183-165.91,198.9-103.38,17.56-202.75-45.39-228.86-142.71a187.53,187.53,0,0,1-6.21-44.38,33.18,33.18,0,0,1,.05-4c.82-8.31,6.53-13.8,14.28-13.77,7.57,0,13.5,5.65,14.26,13.91.58,6.29.48,12.65,1.21,18.92,8.13,69.88,61,125.38,128.39,142.08,76.2,18.89,156.1-15.22,193.85-83.36,12.47-22.51,19.47-46.73,19.6-72.53.26-51.28.08-102.57.06-153.85C2932.88,405,2932.55,403,2932.26,399.63Z"/><path d="M5112.78,431.55h-12.35c-17.65,0-35.32.31-53-.16-13.16-.35-21.52-9.13-21.58-21.36-.06-12.82,8.6-22.2,21.75-22.31q48.46-.41,96.94,0c13.53.12,19.9,6.85,20.71,20.43.14,2.32.05,4.66.05,7V721.78a16.51,16.51,0,0,0,0,2c2.87,23.41-22.17,31.65-37.6,25.16-9.08-3.82-14.64-10.22-14.89-20.45-.08-3.33-.08-6.66-.08-10V431.55Z"/><path d="M5746.66,431.55h-11c-16.32,0-32.65,0-49,0a49,49,0,0,1-9.93-.65c-11.6-2.43-18.08-11.48-17.06-23.35.92-10.81,9.19-18.93,20.21-19.82,1-.08,2-.09,3-.09,31.32,0,62.63-.13,93.95.06,14.93.1,21.17,6.32,22.09,21.1.19,3,.11,6,.11,9q0,151.32,0,302.63c0,1.67,0,3.33,0,5-.26,13-4.83,19.93-15.73,23.87-11.42,4.13-25.31,1.16-31.93-7.64-2.45-3.26-3.57-7.72-4.58-11.81-.7-2.83-.18-6-.18-9V431.55Z"/><path d="M2761.71,644.2c-43.32-.25-76.85-17.73-96.62-57.14-19.11-38.1-16.88-101.49,33.06-136.8,39.52-27.95,119.68-30,156,32.16,27.56,47.27,14.36,112.62-29.19,143.22C2806,638.93,2784.66,644.31,2761.71,644.2Zm-.16-24.31c38.74,0,67.71-23.28,75.58-61a98.45,98.45,0,0,0,.75-36.77C2832.74,491.88,2817,469.21,2787,460c-30.88-9.5-59.7-4.51-82.42,20.3-19.47,21.27-23.55,47.22-19.2,74.73C2691.72,595.09,2721.21,619.91,2761.55,619.89Z"/><path d="M5135.05,253.94c-19.1,0-32.69-12.94-32.88-31.26-.2-18.71,13.61-32.41,32.8-32.54,19.5-.13,34.69,14.23,34.33,32.45S5154.65,254,5135.05,253.94Z"/><path d="M5769.16,253.94c-19.59.05-33.26-13.09-33.19-31.9s13.95-32.07,33.36-31.89,33.53,13.78,33.47,32.06S5788.65,253.88,5769.16,253.94Z"/><path class="cls-1" d="M163.26,477.1V209.64h10.25q92.48,0,185,0c27.45-.05,54.58,2.18,81,10.3,17.35,5.34,33.49,13.05,47.16,25.29,17.09,15.29,26.46,34.9,31,56.9a192.23,192.23,0,0,1,.75,75.42q-12,63.15-71.93,86.3c-24.87,9.66-50.93,13.41-77.34,13.59-66.65.47-133.31.21-200,.22C167.47,477.63,165.83,477.34,163.26,477.1Z"/><path class="cls-1" d="M4870.36,548.6c0,20.65.11,41.3-.1,61.95,0,3.86-.44,8.2-2.24,11.47-11.78,21.48-26.28,40.94-45.55,56.37-38.54,30.87-82,37.05-128.1,22.44-32.49-10.29-54.26-33.71-66.08-65.14-17.4-46.29-17.67-93.5-.14-139.7,15.56-41,45.45-66.71,89.7-73.39a146.27,146.27,0,0,1,70,6.63,241.93,241.93,0,0,1,75.44,42.22c5,4.12,7.4,8.44,7.25,15.2C4870.06,507.29,4870.36,528,4870.36,548.6Z"/><path class="cls-1" d="M6704.21,533.1H6460.39c1.26-5.63,2.2-10.75,3.57-15.76,15.35-56.43,61.29-93.49,119.73-95.7a178.67,178.67,0,0,1,40.67,2.87c28.79,5.59,50,22.29,64,48.13C6698.34,491.14,6702.67,511.05,6704.21,533.1Z"/><path class="cls-1" d="M4429.46,533.07h-241.2c.14-2.62,0-5.17.46-7.56,12.84-61,61.16-101.77,123.53-104.16,14.36-.55,28.58.28,42.63,3.85,25.61,6.49,44.89,21.19,58.25,43.78,10.54,17.81,15.8,37.27,17.29,57.82a25.18,25.18,0,0,1,0,4A10.33,10.33,0,0,1,4429.46,533.07Z"/><path class="cls-1" d="M977.33,565.33c-.62,33.93-8.4,65.42-29.58,92.59-24.37,31.26-56.66,47.56-96.13,49.71-17.72,1-35.29,0-52.41-5.21-39.6-12-67.32-37.63-82.4-75.57-16.1-40.51-16.61-82.4-.27-122.82,20.73-51.28,59.73-79.32,115.54-82.6,28.91-1.7,56.57,3,81.31,18.86,33.86,21.67,53.6,53,60.51,92.34C975.79,543.4,976.23,554.42,977.33,565.33Z"/><path class="cls-1" d="M1433.13,565.24c-.22,32.77-7.41,63.44-27.27,90.19-24.11,32.46-56.64,49.59-96.89,52.15-22.18,1.42-44-.52-64.78-8.91-32.81-13.25-56.59-36.46-70-68.9-17.68-42.78-18.28-86.78,0-129.29,21-48.87,59.28-75.6,113-79,15.34-1,30.68-.5,45.62,3.54,54.52,14.73,85.14,51.57,97.1,105.46a95.92,95.92,0,0,1,2,12.82C1432.46,550.6,1432.72,557.93,1433.13,565.24Z"/><path class="cls-1" d="M2761.55,619.89c-40.34,0-69.83-24.8-76.16-64.87-4.35-27.51-.27-53.46,19.2-74.73,22.72-24.81,51.54-29.8,82.42-20.3,30,9.22,45.73,31.89,50.87,62.17a98.45,98.45,0,0,1-.75,36.77C2829.26,596.61,2800.29,619.88,2761.55,619.89Z"/></svg>