<svg xmlns="http://www.w3.org/2000/svg" viewBox="0 0 6790 1619"><g>

	<rect width="6790" height="1619" style="fill: #900" />

	<path d="M3228.15 1346.33c31.27 13.12 55.78 34.13 75.39 61 23.21 31.81 36.65 67.78 44.17 106.1 2.5 12.72 3.93 25.66 5.76 38.5a48.37 48.37 0 0 1 .45 8 21.11 21.11 0 0 1-42 2.65c-2.71-17.08-4.48-34.36-8.12-51.24-6.61-30.56-18.36-59.07-37.57-84.13-10.64-13.88-23.1-25.79-38.13-34.87-2.73-1.65-5.71-2.88-10.16-5.1-1.4 18.14-3 34.64-3.85 51.18-.61 12 0 24-.33 36-.25 9.27-5.21 15.56-13.8 18.92-8.36 3.28-15.72 1.15-22.17-4.61-4.19-3.73-6.1-8.61-6.25-14.22-1.61-60.08 3.77-119.13 26.52-175.5 18-44.65 45.43-82 86.41-108.36 17.21-11.1 35.58-19.71 55.65-24 15.67-3.39 27-12.43 35.74-25.24 9.79-14.3 15-30.49 17.72-47.34a271.59 271.59 0 0 0 3.57-39.73c.43-43.63.17-87.27.15-130.91 0-2.92-.25-5.85-.44-10.24-2.91 2-5.09 3.14-6.86 4.74-19.64 17.71-42.58 29.55-67.47 37.87-5 1.68-10.37 2.35-15.49 3.77-54.85 15.24-94 49.87-121.19 98.88-17.69 31.86-27.56 66.36-31.76 102.37-2.31 19.8-2.86 39.81-4 59.74-.49 8.79-4.16 15.39-12.15 19.13-7.54 3.53-15 2.74-21.78-2-6.25-4.38-8.5-10.68-8.52-18.17a437.29 437.29 0 0 1 5.43-70.64c1.21-7.49 2.56-15 4.23-24.64-4.63 2.23-7.79 3.54-10.75 5.2-50.19 28.26-82.5 70.63-98.17 125.68-3.9 13.7-6 28-8.41 42-2 11.65-8.45 19.11-18.72 20.31-13.64 1.59-24.94-8-23.59-21.65a271.88 271.88 0 0 1 7.24-42.26c22.89-86.87 77-145.76 161.06-177.16a16 16 0 0 0 10.15-9.73c22.84-53.36 58.35-95.75 108.87-125.14 18.26-10.63 38.09-17.36 57.8-24.51 8.74-3.17 17.54-6.41 25.82-10.61 21.91-11.11 37.65-28.19 47.22-50.9 10.07-23.93 14.89-49.09 16.07-74.81s1.25-51.26 1.26-76.9q.15-240.33 0-480.66v-12.58c-3.3-.35-5.82-.84-8.34-.85-15.33-.08-30.66 0-46-.06a51.58 51.58 0 0 1-9-.49c-11.62-2.08-18.61-11.05-18-22.72.62-11.35 8.94-20.1 20.47-20.54 12-.46 24-.17 36-.19 14.33 0 28.68.41 43-.11s24.63 4.94 33.23 16.35q114.89 152.43 230.21 304.5c3.8 5 7.68 10 12.1 15.72 2.55-3.09 4.7-5.5 6.64-8.07Q3810.79 339 3928 184c2.21-2.93 4.36-5.91 6.77-8.66 5.3-6.06 12-9.53 20.12-9.55 28.67-.08 57.33-.25 86 0 12.55.12 21.24 9.35 21.47 21.6s-7.92 21.47-21 22c-16 .62-32 .21-48 .24H3982c-.29 3.74-.7 6.62-.7 9.5v458.68c0 14.42 4.38 19.17 18.92 19.63 13.32.43 26.66-.09 40 .25s22 9.4 22.2 22.08c.13 11.16-7.15 21-18.23 21.3-24.24.61-48.67 2.84-72.64-3.22-27.42-6.94-41.1-23.56-42.73-51.78-.21-3.66-.09-7.33-.09-11V267.72l-1.82-.62c-2.22 2.66-4.57 5.23-6.66 8Q3816.13 412.52 3712.12 550c-4.25 5.61-8.47 11.15-15.51 13.59-11.87 4.12-23.49.64-31.78-10.2-17.41-22.75-34.6-45.67-51.89-68.51q-79.3-104.78-158.65-209.53c-2.13-2.81-4.44-5.48-7.92-9.76-.31 4.77-.65 7.59-.65 10.41q-.06 240.33 0 480.67c0 31.83 3.77 63.1 14.84 93.2 11.57 31.46 33.88 52 64.92 63.51 8.1 3 16.26 5.87 24.44 8.67 71 24.33 120 72.35 150.43 140 3.74 8.31 8.68 12.61 17.07 16 89.22 35.48 142.44 100.89 160.62 195 1.32 6.86 2.36 13.79 3.21 20.72 1.4 11.53-5.88 21.53-16.81 23.48-11.9 2.12-22.17-4.27-24.78-16.19-2.91-13.31-4.38-27-7.83-40.14-15-57.17-47.59-101.26-99.13-130.87-3.11-1.79-6.36-3.32-11.23-5.84 1.28 7.89 2.17 14 3.29 20.09 4.55 24.66 6 49.58 6.24 74.57.13 13.34-8.08 22.29-20.06 22.79-13.08.55-21.92-8.28-22.59-22.49-.74-16-.81-32-2.45-47.86-5.17-50.12-19.07-97.33-49.4-138.48-27.2-36.88-62.39-62.74-107.26-73.75a192.59 192.59 0 0 1-58.52-24.75c-8.62-5.51-16.6-12-25.76-18.72-.32 3.13-.78 5.57-.79 8 0 44.64-.24 89.27.07 133.91.15 22.43 3.39 44.47 11.71 65.51 4.46 11.27 10.45 21.59 19.4 29.94 6.16 5.75 13 10.48 21.34 12.43 56.1 13.12 97.2 46.49 127.1 94.6 21.6 34.75 33.3 73.16 40.06 113.21 5.5 32.63 6.83 65.53 6.32 98.56-.14 8.74-3.09 15.64-10.7 20.07-15.8 9.18-32.16-4.1-32-18.64.24-19.62-.75-39.27-1.61-58.89-.36-8.19-1.74-16.34-2.85-26.23-4.6 2.52-8.09 4.14-11.27 6.22-24.7 16.17-42 38.66-54.76 64.85-14.47 29.71-21.61 61.42-25 94.1a96 96 0 0 1-1.12 9.91c-2.36 11.26-12.6 18.85-23.25 17.44a21.25 21.25 0 0 1-18.73-23.16c2.7-31.3 8.44-62 19.41-91.54 12.1-32.59 29.54-61.82 55-85.9a168.22 168.22 0 0 1 43.38-30c2.35-1.12 4.65-2.35 7.57-3.84-16.1-55.34-42.95-102.12-95.89-129.52a113.18 113.18 0 0 0-27-10c-27.74-6.21-47.82-22.38-62.92-45.67-1.27-2-2.43-4-3.63-6-1-1.7-2-3.4-4-6.58-2.09 3.37-3.75 5.92-5.29 8.54-11.27 19.15-26.24 34.35-46.76 43.55a65.63 65.63 0 0 1-13.14 4.64c-32.29 6.7-58.3 23.92-80 48-23.5 26-38 56.83-47.41 90.27a16.38 16.38 0 0 0-.05 2.94ZM110.34 209.63h-53.3a52.91 52.91 0 0 1-10.91-.82c-11.13-2.47-17.48-11.18-16.74-22.63a21.37 21.37 0 0 1 19.68-20.35c2-.19 4-.15 6-.15q157.49 0 315 .18c35.88.08 71.09 4.95 104.8 17.95 31 12 56.73 30.7 74.46 59.3 11.39 18.37 18.08 38.48 21.49 59.75 5.07 31.61 4.62 63.11-3.21 94.2-11.94 47.4-41.12 80.53-85.39 100.64-7.81 3.54-15.87 6.53-24.54 10.06 1.81 3.35 3.24 6.24 4.89 9q57.68 96.47 115.4 192.91a106.24 106.24 0 0 1 5.92 10.41c4.3 9.5 1.1 19.64-7.75 25.23a40.43 40.43 0 0 1-5.34 2.69c-16.76 7.39-24.71 5-34.13-10.65C495.17 668.64 453.54 600 412.57 531c-5.55-9.34-11.26-11.89-22-11.73-71.31 1.07-142.64 1.15-214 1.55h-13.94v13c0 63.29-1 126.6.49 189.85.6 25-25.69 32.94-41.41 23.55-7.1-4.23-11.29-10.2-11.41-18.66-.05-3 0-6 0-9V209.63Zm52.92 267.47c2.57.24 4.21.53 5.85.53 66.65 0 133.31.25 200-.22 26.41-.18 52.47-3.93 77.34-13.59q59.82-23.26 71.93-86.3a192.23 192.23 0 0 0-.75-75.42c-4.54-22-13.91-41.61-31-56.9-13.67-12.24-29.81-19.95-47.16-25.29-26.38-8.12-53.51-10.35-81-10.3q-92.48.15-185 0h-10.21ZM4873.7 677.23c-10.61 11.19-20.05 22.37-30.75 32.19-21.74 19.93-46.63 34.46-76.25 39.12-38.43 6-75.81 2-111.31-14.36-34.77-16-57.6-43.95-72.26-78.26-24.35-57-26-115.38-3.92-173.28 25.89-68 82.08-105 155.9-104.74 48.65.14 92.46 14.33 130 46.06 1 .85 2.11 1.58 3.06 2.29a8.07 8.07 0 0 0 1.15-.44c.24-.16.59-.44.59-.66q.24-172.35.41-344.69a44.8 44.8 0 0 0-.84-5.83h-11c-17.66 0-35.33.25-53-.12-14.57-.3-23.08-10-21.75-23.88a21.14 21.14 0 0 1 17.48-19.16 43.16 43.16 0 0 1 7.95-.65q42.49-.06 85 0a43.63 43.63 0 0 1 10.84 1.32c10.95 2.88 17.36 11.07 17.88 22.4.15 3.33.05 6.67.05 10V666.1c0 4-.1 8 .08 12 .61 13.93 5.88 19.22 19.71 19.46 11 .19 22 0 33 .06 5 0 10-.26 15 .24 11.75 1.18 19.41 9.85 19.4 21.44 0 11.36-7.92 21.71-19.09 21.84-24.27.29-48.73.82-72.8-1.72-23.63-2.5-37.83-18.51-42-41.9-1.14-6.52-1.66-13.18-2.53-20.29Zm-3.34-128.63c0-20.65-.3-41.31.16-62 .15-6.76-2.2-11.08-7.25-15.2a241.93 241.93 0 0 0-75.44-42.22 146.27 146.27 0 0 0-70-6.63c-44.25 6.68-74.14 32.36-89.7 73.39-17.53 46.2-17.26 93.41.14 139.7 11.82 31.43 33.59 54.85 66.08 65.14 46.14 14.61 89.56 8.43 128.1-22.44C4841.74 663 4856.24 643.5 4868 622c1.8-3.27 2.2-7.61 2.24-11.47.23-20.63.12-41.28.12-61.93ZM6459.16 577.52c.77 55.86 35.17 115.48 102.29 127.84a167.94 167.94 0 0 0 68.44-1.56c31.27-7.13 56-24 74.48-50.06 1.92-2.72 3.77-5.5 5.92-8 4.23-5 9.79-7 16.13-5.6a65.86 65.86 0 0 1 13.2 4.42c10.35 4.79 17.43 18.74 8.26 32-20.61 29.7-47.3 51.39-81.63 62.88-43.06 14.41-87 15.82-131 5-45-11.07-78.78-37.77-102.51-77.21-33-54.82-36.35-135.94-7.46-193C6450.86 423.68 6492 393 6547.51 382a226.21 226.21 0 0 1 94.22 1.41c44.38 10 75.6 36.11 94.91 76.9 14.11 29.79 18.86 61.57 18.94 94.15 0 13.89-6.8 20.51-20.86 21.65-5.31.43-10.65.62-16 .63q-124.44.42-248.89.74Zm245.05-44.42c-1.54-22.05-5.87-42-15.89-60.46-14-25.84-35.17-42.54-64-48.13a178.67 178.67 0 0 0-40.67-2.87c-58.44 2.21-104.38 39.27-119.73 95.7-1.37 5-2.31 10.13-3.57 15.76ZM4186.18 577.52c0 51.54 31.93 115.09 102.52 127.91a167.93 167.93 0 0 0 68.47-1.7c30.87-7.15 55.38-23.78 73.77-49.52 1.93-2.71 3.47-5.87 5.91-8 2.9-2.54 6.34-5.17 10-6.07 8.93-2.24 23.82 4.68 28.83 12.53s4.68 15.32-.63 23.22c-21.23 31.59-49.75 53.6-86 64.9-41.31 12.85-83.34 14-125.36 4-45.06-10.74-80.27-36.41-103-76.47-35.94-63.41-38.67-129.78-7.44-195.43 23.95-50.33 66.12-80 120.83-90.83a224.72 224.72 0 0 1 95.23 1.5q62.28 14.35 91.45 71.18c16.43 31.88 22.06 66.09 21.46 101.54-.2 11.48-6.15 17.87-17.46 19.43a127.77 127.77 0 0 1-16.94 1q-125.49.45-251 .75Zm243.28-44.45a10.33 10.33 0 0 0 .94-2.29 25.18 25.18 0 0 0 0-4c-1.49-20.55-6.75-40-17.29-57.82-13.36-22.59-32.64-37.29-58.25-43.78-14.05-3.57-28.27-4.4-42.63-3.85-62.37 2.39-110.69 43.14-123.53 104.16-.5 2.39-.32 4.94-.46 7.56ZM2186.31 436.49c-14.42-6.2-28.67-9.58-43.17-11.74-32.84-4.88-65.78-6-98.38 1.25a102.83 102.83 0 0 0-29.44 11.76c-16.76 9.91-23.66 28.36-20 47.44 1.7 8.75 6.39 14.81 13.72 19.84 18.61 12.77 39.74 18.17 61.34 22.74 27.35 5.77 54.73 11.49 81.83 18.29 12.84 3.22 25.28 8.38 37.49 13.63a129.15 129.15 0 0 1 23.42 13.3c36.83 26 43.88 65.3 32.61 102.76-4.64 15.4-14.18 27.68-26.41 38.06-22.26 18.91-48.1 29.34-76.84 33.26-51.05 6.95-101.73 5.58-151.7-7.61-12.82-3.39-25.26-8.35-37.69-13.09-12.09-4.62-18.31-12.94-17.83-26.81.77-22.29.61-44.64.06-66.95-.35-14.52 6.47-20.5 15.4-24.05 10.74-4.27 24.23-1.28 31.53 6.45 4.44 4.69 5.57 10.36 5.53 16.57-.1 17 0 34 0 51v10a250.54 250.54 0 0 0 51.07 12.12c33.2 4.55 66.42 5 99.52-1a110.7 110.7 0 0 0 35.52-12.81c26.57-15.28 36.7-56.62 3.48-79.92-17.76-12.46-37.63-20-58.37-25.17-23.24-5.85-46.92-10-70-16.37-19.83-5.47-39.7-11.63-58.48-19.91-41.93-18.49-57.65-65.84-40.58-106.89a78 78 0 0 1 15.45-23c20.23-21.3 45.76-32.78 74.59-37.22 60.89-9.37 120.2-4.28 177.42 19.64a83.12 83.12 0 0 1 9.88 4.76c7.45 4.33 11.56 10.57 11.49 19.57-.19 23-.4 46 .06 68.95.27 13.62-10.79 23.2-25.74 23.35s-27-8.86-26.78-23.44c.19-15.66 0-31.32 0-47ZM6007.14 447.69c9.09-8 17.76-15.8 26.53-23.46 48.53-42.38 104.36-55 166.7-40.48a103.08 103.08 0 0 1 16.93 5.94c38.83 16.55 58.2 46.31 58.45 88.2.35 57.62.1 115.24.11 172.86 0 9-.11 18 0 27 .19 11 3.91 15.84 14.49 18.45a57.44 57.44 0 0 0 12.84 1.35c12.33.18 24.67-.1 37 .13 11.43.22 19.38 6.45 22.06 16.69 3.32 12.68-4.11 26-17 26.57-24.89 1.11-50 3-74.67-2.74-32.19-7.52-46.84-25.94-46.91-58.92-.14-64.62 0-129.23-.09-193.85a127.37 127.37 0 0 0-1.09-16.91c-3-21.68-15.67-35.46-35.88-42.6-18.09-6.4-36.8-5.75-55.37-3.23-40.34 5.45-72.13 26-97.75 56.88-1.27 1.54-2.51 3.11-3.74 4.69-18.85 24.07-18.85 24.07-18.85 54.33v186.85c-.22 13.08-4.72 19.9-15.68 23.84-11.39 4.1-25.29 1.09-31.93-7.7-2.46-3.27-3.71-7.72-4.61-11.82-.78-3.51-.33-7.3-.33-11 0-87.93-.24-175.86.18-263.79.09-18.82-6.31-24.11-23.5-23.54-13.65.46-27.33.34-41 0-14.61-.35-23.36-9.83-22.39-23.53.77-11 8.85-19.88 19.83-20.07 22-.39 44-1 65.95.4 27.84 1.78 45.37 20.15 48.56 48.21.5 4.24.88 8.46 1.16 11.25ZM653.18 568.36c-.13-48.24 11.47-89.08 40.4-124 31.7-38.27 72.5-59.57 121.88-64.91 34.33-3.71 68-1.28 100.13 11.87 58.51 24 94.85 67.4 108 129.12 8.6 40.17 6.91 80.42-8.78 118.78-24.42 59.72-69.3 95.83-132.49 108-43.11 8.31-85.93 5.59-126.07-13.49C700 707 666.71 662.06 655.94 600.62c-.8-4.58-1.47-9.21-1.82-13.85-.54-7.3-.76-14.62-.94-18.41Zm324.15-3c-1.1-10.91-1.54-21.93-3.43-32.7-6.9-39.38-26.65-70.66-60.51-92.37-24.74-15.84-52.4-20.56-81.31-18.86-55.81 3.28-94.81 31.32-115.54 82.6-16.34 40.42-15.83 82.31.27 122.82 15.08 37.94 42.8 63.61 82.4 75.57 17.12 5.17 34.69 6.17 52.41 5.21 39.47-2.15 71.76-18.45 96.13-49.71 21.18-27.17 28.96-58.66 29.58-92.59ZM1484.89 565c-.51 40.36-9.7 78-33.6 111.08-31.65 43.78-74.94 67.74-128.49 73.6-32.56 3.57-64.76 1.71-95.51-9.92-65-24.57-103.52-71.78-115.14-140.09-6.11-36-4.3-72 9.41-106.17 24.68-61.56 70-99.23 135.29-111.73 41.13-7.88 81.94-5.44 120.44 11.89 60.26 27.12 94.92 74.31 104.76 139.57 1.58 10.45 1.95 21.14 2.84 31.77Zm-51.76.28c-.41-7.31-.67-14.64-1.28-21.93a95.92 95.92 0 0 0-2-12.82c-12-53.89-42.58-90.73-97.1-105.46-14.94-4-30.28-4.51-45.62-3.54-53.67 3.39-91.92 30.12-113 79-18.29 42.51-17.69 86.51 0 129.29 13.41 32.44 37.19 55.65 70 68.9 20.78 8.39 42.6 10.33 64.78 8.91 40.25-2.56 72.78-19.69 96.89-52.15 19.92-26.8 27.11-57.48 27.33-90.24ZM1615.61 387.59V256.55c0-19.9 16.1-31.23 35.29-25 11.46 3.7 16.87 10.82 16.9 22.91q.12 60.44 0 120.88v12.28h157.35c3.33 0 6.68-.13 10 .17a22 22 0 0 1 20.13 21.21c.49 10.32-6.35 19.35-17 21.69a56.82 56.82 0 0 1-11.9.81q-73 .08-146 0h-11.69a74.07 74.07 0 0 0-.88 8q0 99.41.09 198.81a128.53 128.53 0 0 0 1.83 19.85c4.48 28.45 18.85 42.7 47.47 47.35 38.67 6.29 75.61.68 110.85-16.32 5.09-2.46 10.06-5.18 15.1-7.77a25.86 25.86 0 0 1 17.34-2.76c9.08 1.73 15.39 6.28 17.51 15.46 2.19 9.51-1.62 19-10.61 23.81a304.25 304.25 0 0 1-34.28 16.17q-69.85 26.79-143.31 11.6a126.68 126.68 0 0 1-14.38-4.12c-27.32-9.12-44.87-27.69-53.2-55.14-5.27-17.39-6.73-35.23-6.71-53.29q.09-94.41 0-188.82v-12.78h-11.85c-14.66 0-29.33.24-44-.13-10.61-.26-18.4-6.42-21-15.5-2.49-8.8.47-18.78 8.35-23.85a28.85 28.85 0 0 1 13.9-4.26c14.31-.55 28.65-.22 43-.22ZM5550.31 443c-16.25-9.29-32.94-14.72-50.36-18-21.75-4.13-43.79-6-65.6-2.21-48.81 8.4-82.26 37.16-99.74 82.6-16.32 42.39-15.4 86 3.71 127.4 22.18 48.06 60.49 73.77 114.2 75.06 15.41.37 30.64-.84 45.56-4.73 27.7-7.22 50.44-22 67.86-44.85a47.08 47.08 0 0 0 3.53-4.84c9.94-17.1 22.6-17.64 41.66-5.55 8.26 5.24 8.93 16.59 2.42 26.94a153 153 0 0 1-29.23 34 158 158 0 0 1-61.91 33.36c-39.61 11.11-79.61 12.75-119.46 2.4-54.4-14.12-91.77-49.11-113.67-99.8-21.77-50.36-23.89-102.77-3.19-153.7 26.46-65.09 75.81-103.37 146.26-111.42a252.87 252.87 0 0 1 145.39 26.08c3.86 1.95 7.59 4.16 11.39 6.24 9.27 5.09 13.86 12.41 13.63 23.48-.5 23.63-.11 47.28-.17 70.93 0 13.37-4.89 20.33-16.51 24.13-11.36 3.71-25.75.22-31.54-8.89-2.67-4.19-3.91-9.91-4.05-15-.47-17.64-.18-35.29-.18-52.94ZM2932.26 399.63h-27.71a51.73 51.73 0 0 1-8-.22c-6.28-1-10.28-5.58-10.51-11.52a11.88 11.88 0 0 1 10.39-12.61c4.57-.68 9.29-.47 14-.52 6.95-.07 13.9 0 22 0 .18-4.63.46-8.48.46-12.33 0-35.64-.22-71.27.16-106.9a216.13 216.13 0 0 1 3-34.74c4.91-28.28 21.83-45.81 50-51.61 33.29-6.85 65.5-3.34 96.48 11.14 9.27 4.33 13.71 10.32 13 21-.83 11.93 0 24-.27 35.95-.22 9.62-6.83 15.26-16.3 14.52-8.07-.63-12.92-5.27-13.17-13.39-.3-9.31-.1-18.64-.11-28v-10.84c-11.1-6.14-22.66-7.95-34.2-8.59a166.3 166.3 0 0 0-32.79 1.1c-17 2.46-28.45 12.6-32.76 29.5-2 7.68-3.59 15.7-3.66 23.58-.39 41.29-.25 82.58-.26 123.88 0 1.29.26 2.59.52 5 3.54.23 7 .66 10.51.66 26.33.06 52.65 0 79 .06a55 55 0 0 1 9.95.55 12 12 0 0 1 10.09 12.87c-.29 5.84-4.41 10.3-10.77 11.25a55.8 55.8 0 0 1-8 .19h-90.91c-.16 4.16-.42 7.69-.42 11.21 0 45.63-1 91.28.18 136.87 2.7 102.1-72.1 183-165.91 198.9-103.38 17.56-202.75-45.39-228.86-142.71a187.53 187.53 0 0 1-6.21-44.38 33.18 33.18 0 0 1 .05-4c.82-8.31 6.53-13.8 14.28-13.77 7.57 0 13.5 5.65 14.26 13.91.58 6.29.48 12.65 1.21 18.92 8.13 69.88 61 125.38 128.39 142.08 76.2 18.89 156.1-15.22 193.85-83.36 12.47-22.51 19.47-46.73 19.6-72.53.26-51.28.08-102.57.06-153.85 0-1.9-.33-3.9-.62-7.27ZM5112.78 431.55h-12.35c-17.65 0-35.32.31-53-.16-13.16-.35-21.52-9.13-21.58-21.36-.06-12.82 8.6-22.2 21.75-22.31q48.46-.41 96.94 0c13.53.12 19.9 6.85 20.71 20.43.14 2.32.05 4.66.05 7v306.63a16.51 16.51 0 0 0 0 2c2.87 23.41-22.17 31.65-37.6 25.16-9.08-3.82-14.64-10.22-14.89-20.45-.08-3.33-.08-6.66-.08-10V431.55ZM5746.66 431.55h-60a49 49 0 0 1-9.93-.65c-11.6-2.43-18.08-11.48-17.06-23.35.92-10.81 9.19-18.93 20.21-19.82 1-.08 2-.09 3-.09 31.32 0 62.63-.13 93.95.06 14.93.1 21.17 6.32 22.09 21.1.19 3 .11 6 .11 9v307.63c-.26 13-4.83 19.93-15.73 23.87-11.42 4.13-25.31 1.16-31.93-7.64-2.45-3.26-3.57-7.72-4.58-11.81-.7-2.83-.18-6-.18-9v-289.3Z"/><path d="M2761.71 644.2c-43.32-.25-76.85-17.73-96.62-57.14-19.11-38.1-16.88-101.49 33.06-136.8 39.52-27.95 119.68-30 156 32.16 27.56 47.27 14.36 112.62-29.19 143.22-18.96 13.29-40.3 18.67-63.25 18.56Zm-.16-24.31c38.74 0 67.71-23.28 75.58-61a98.45 98.45 0 0 0 .75-36.77c-5.14-30.24-20.88-52.91-50.88-62.12-30.88-9.5-59.7-4.51-82.42 20.3-19.47 21.27-23.55 47.22-19.2 74.73 6.34 40.06 35.83 64.88 76.17 64.86ZM5135.05 253.94c-19.1 0-32.69-12.94-32.88-31.26-.2-18.71 13.61-32.41 32.8-32.54 19.5-.13 34.69 14.23 34.33 32.45s-14.65 31.41-34.25 31.35ZM5769.16 253.94c-19.59.05-33.26-13.09-33.19-31.9s13.95-32.07 33.36-31.89 33.53 13.78 33.47 32.06-14.15 31.67-33.64 31.73Z"/></g></svg>